<?xml version="1.0" encoding="UTF-8"?>
<svg id="Layer_1" data-name="Layer 1" xmlns="http://www.w3.org/2000/svg" viewBox="0 0 595.28 841.89">
  <defs>
    <style>
      .cls-1, .cls-2 {
        fill: #f59290;
      }

      .cls-3, .cls-4, .cls-5 {
        fill: #ddae39;
      }

      .cls-4 {
        font-size: 17.44px;
      }

      .cls-4, .cls-2, .cls-5 {
        font-family: Didot, Didot;
      }

      .cls-2 {
        font-size: 162.32px;
      }

      .cls-5 {
        font-size: 16.03px;
      }
    </style>
  </defs>
  <g>
    <path class="cls-3" d="M295.93,252.63l-.02,1.09c2.69-.51,5.47-.4,8.16,0,1.69.24,4.71.89,5.63,2.48.07.12.08.31.15.39.05.07.16-.02.22,0,.28.11.21,1.2.2,1.51-.04.88-.25,1.82-.34,2.71-.07.7.14,1.38-.48,1.89-.27.22-1.38.64-1.79.81-1.92.81-3.26,1.12-5.37,1.16-.44,0-.89-.06-1.32-.06.07.11.15.18.16.33.02.3-.14.96-.17,1.33-.05.76-.02,1.52-.07,2.28-.1,1.54-.34,3.08-.43,4.62,0,.03.54.19.62.16.09-.03,1.07-.94,1.29-1.11,1.09-.82,2.72-1.71,4.01-2.15.49-.17.7-.17,1.19,0,1.43.51.5,2.57-.24,3.36s-1.49,1.08-2.43,1.4c-.07.03-.12-.04-.09.1.31.16.49.56.76.72.81.48,2.01.44,3.01,1.03,1.22.72,3.11,1.95,2.74,3.58-.14.64-.72.74-.96,1.26-.28.61.04,2.17-1.18,1.78-.7-.22-.72-1.18-.51-1.76.51-1.38,2.14-1.42,1.01-3.27-.79-1.3-2.16-1.69-3.61-1.7.27,1.13-1.01,2.17-1.95,2.52-1,.38-2.68.37-3.77.36-1.87-.02-4.39-.38-5.54-2.02-.48.47-.76,1.09-1.15,1.63-.63.85-1.56,1.83-2.38,2.49-.4.32-1.18.97-1.68.96-.4,0-1.53-.76-1.43-1.17.23-.21.7-.27,1.02-.33,1.65-.33,2.31-.25,3.36-1.75.67-.96.65-1.63,1.05-2.59.34-.83,1.19-1.2,1.69-1.89.01-.14-.07-.09-.17-.08-.33.04-.73.24-1.07.3-.66.12-2.61.24-2.89-.54-.1-.3-.16-1.75-.09-2.07.09-.41.7-.59,1.07-.7,1.46-.46,3.73-.56,5.15.07.46.2,1.32.9,1.64.99.13.04.25.02.38,0,.12.24-.29,0-.17.18.05.07.26.21.35.26l.36-8.65c-1.69-.02-3.46-.08-5.12-.42-1.33-.28-2.15-.57-2.83-1.83-.55-1.03-.43-2.07-.49-3.18-.04-.81-.28-2.34.01-3.09.5-1.28,2.8-1.94,4.03-2.2.19-.15-.09-1.18.46-1.17ZM296.25,255.82l1.85-.18c-.08-.49-.07-1,.05-1.48.21.03.09.29.1.34l.11,1.11,1.73-.04-.1-1.05c-.01-.12.06-.67.18-.76l.12,1.85,1.48-.02-.09-.92s.03-.44.04-.49c.01-.07.06-.18.14-.2l.11,1.65,1.49.18c-.02-.62-.07-1.27.1-1.87.11.07.11.15.12.27.01.24-.03,1.62.05,1.7l1.3.2.13-1.87c-2.99-.76-6.18-.66-9.21-.18.04.6.15,1.19.3,1.77ZM294.32,254.59l.14,1.43s.11.1.16.08l1.23-.25c0-.22-.21-1.65-.3-1.69-1.11.17-3.95.99-3.94,2.4,0,.07.02.35.07.35l2.47-.72c.13-.11-.13-1.13,0-1.47.03-.09.05-.14.16-.13ZM306.8,254.71l-1.45-.44-.04,1.87,1.37.57.12-2ZM294.23,256.35l-2.49.72c.34.53.86.91,1.41,1.2,3.54,1.92,11.67,2.16,15.19.23,2.81-1.54.46-3.15-1.46-3.74l.15,2.06c.3.24.72.33.95.65-.21.08-.8-.54-.94-.42-.01.18-.14.49.12.53-.45.46.24.44.26.68.04.41-.6-.09-.73-.12-.23-.06-.96.6-1.2.76-.28.19-.6.42-.92.51l1.86-1.37c-.13-.05-.43-.19-.55-.15-.18.05-1.32,1.03-1.64,1.23-.12.07-.25.16-.39.18.52-.56,1.22-.98,1.85-1.41-.07-.14-.34-.17-.48-.13-.19.06-.91.66-1.14.82-.12.08-.26.2-.41.22.28-.49,1.09-.73,1.44-1.08.1-.1,0-.13-.1-.16-.22-.09-.9-.26-1.11-.19-.25.09-1.24,1.13-1.53,1.39-.09.08-.18.19-.3.2l1.69-1.71-1.58-.16c-.14.05-.74,1.25-.91,1.48-.06.08-.05.18-.19.17l.86-1.69-1.23-.07c0,.32,0,.72-.06,1.04-.03.11.01.15-.14.14v-1.19s-.57-.04-.57-.04c.05.2.17.38.19.59.01.13.06.18-.11.17l-.28-.8c-.98-.15-1.96.15-2.94.09.03.29.26.5.48.66,1.08-1.55,3.21.5,1.9,1.68-.98.88-2.54-.42-2.01-1.57-.2-.08-.57-.7-.68-.73-.3-.07-.94.05-1.26.12-.88.19-1.7.65-2.6.71l1.8-.66.05-.07c-.17-.12-.17-.72-.27-.77ZM295.17,256.95c.29-.06.63-.04.92-.09l-.22-.88-1.31.26.15.88s.39-.16.46-.17ZM298.1,255.76c-.12-.06-1.52.2-1.78.18.06.27.21.86.52.9.54.06,1.48-.17,2.09-.19.35-.01.71.06,1.04.08.87.05.51.02.71-.58.03-.1-.02-.16.14-.14l-.06.71c.61-.01,1.32.28,1.77-.24l-.16.34c.5-.12,1.25.23,1.67.22.25,0,.32-.23.35.06.53.02.95.53,1.44.21l-.17.18c.29.24.48.03.77-.04l-.17.27.43.09c-.03-.16.05-.89,0-.96-.04-.05-1.17-.45-1.24-.45-.29-.02-.17.47-.25.71-.09.25-.21-.03-.23-.18-.02-.19.14-.55-.11-.65s-.83-.06-1.13-.16c0,.11.11.63-.03.64-.16.01-.2-.55-.23-.64-.06-.15-1.27-.26-1.5-.28.05.05.14.74-.07.59-.09-.07-.08-.47-.15-.57-.06-.07-1.41-.17-1.46-.11-.03.03.12.4-.08.46-.07-.13-.07-.45-.22-.48-.23.03-1.56-.07-1.63.02-.04.05.15.46-.05.45-.12-.04-.18-.41-.2-.43ZM296.41,256.83c.01-.09-.05-.17-.15-.18l.02.19h.13ZM309.75,257.76c-.09-.08-.59.49-.73.6-3.24,2.43-12.85,2.05-16.31-.04-.5-.3-.83-.63-1.2-1.06-.09.63.12,1.22.18,1.81.09.79.15,1.57.23,2.36.04.36-.07.34.16.72,1.06,1.75,4.14,1.93,6.02,2.08,3.14.26,6.27.34,9.25-.8.3-.11,1.61-.64,1.75-.79.49-.53.41-1.43.47-2.1l-.52,1.59c-.1.21-.35.21-.35-.04l1.01-2.86.03-1.47ZM300.71,264.57h-.64c-.13,2.27-.21,4.53-.3,6.8-.01.33-.21,1.82-.08,1.98.09.12.47.17.41.54.1-.02.09-.1.1-.18.05-.23.07-.6.09-.86.22-1.99.28-4,.33-5.99.02-.76.09-1.53.09-2.29ZM303.88,274.47c.09.09.65.26.81.23,1.51-.32,3.32-2.13,3.22-3.74-.03-.55-.55-.88-1.08-.83-.37.04-2.18,1.1-2.62,1.37-.98.59-1.88,1.28-2.81,1.94l1.58.6c1.35-.01,2.37-.88,3.1-1.93.13-.19.51-1,.56-1.04.24-.17.29.03.22.27-.17.54-1.43,2.19-1.9,2.53-.33.24-.62.35-.99.47-.08.03-.19.03-.08.13ZM298.45,272.83c-1.83-1.45-4.44-1.39-6.56-.7l2.39.11c.93.24,1.88.34,2.82.48.47.07.87.31,1.35.1ZM291.71,272.28c-.28.04-.24.32-.2.53l.2-.53ZM297.21,273.27c-.09-.13-.37-.15-.53-.17-.69-.11-1.39-.22-2.08-.32-.83-.12-1.67-.13-2.5-.16-.31.08-.16,1.06-.07,1.3.07.19.28.39.49.4.77-.07,1.51-.24,2.28-.29.29-.02.91.07,1.15.02s.87-.77,1.25-.77ZM294.24,274.47l-1.43.14c-.06,0-.41-.08-.5-.11-.58-.22-.69-.91-.81-1.44.07.34-.09,1.25.16,1.47.37.31,1.58.19,2.05.11l.53-.18ZM298.79,273.05c-.05-.14-.21-.11-.33-.09.05.14.21.11.33.09ZM299.42,273.57c-.53.04-1.32-.31-1.8-.28-.26.02-.84.33-1,.55.71-.13,1.47-.19,2.2-.22.2,0,.53.18.61-.06ZM300.56,274.03l.05-.45c-.3,0-.18.35-.24.54.07.08,1.63-.02,1.86-.06l-1.09-.34-.58.31ZM297.68,274.19l-1.18.12s-.74.28-.82.33c-.11.07-.17.17-.25.26.65-.09,1.3-.44,1.97-.55.57-.1,1.09-.11,1.64.03l.14-.5c-.56-.19-1.15.13-1.72.14l.21.17ZM298.69,274.6c-.18.06-.37-.02-.54,0-.59.06-2.73.77-3.13,1.17-.25.26-.21.68-.16,1.01.04.04.77-.65.87-.72.89-.64,1.97-.8,2.88-1.32.07-.04.12.02.08-.14ZM299.63,276.23s.14.06.18.03c.17-.1.28-1.26.24-1.44-.02-.1-.1-.16-.19-.2-.37-.03-.35,1.51-.24,1.61ZM304.17,274.77c-.3,0-.54-.28-.84-.3-.33-.02-.73.1-1.08.1-.52,0-1.05-.05-1.58-.03.79.66,1.89.51,2.84.43l.65-.2ZM299.41,274.86c-.22-.28-1.59.56-1.88.69-.73.34-1.13.38-1.79.93-.09.08-.61.54-.64.59-.11.22.75.94.94,1.07,1.33.89,3.3,1.04,4.86,1s4.35-.11,4.94-1.86c.05-.15.15-.68,0-.76-.09-.05-1.27-.1-1.48-.1-1.02-.02-1.88.18-2.86-.29-.49-.24-.83-.59-1.19-.98-.09.34,0,1.57-.65,1.37s-.03-1.36-.26-1.65ZM304.35,275.01c-.73.07-1.46.15-2.2.22l.58.12,2.38.17c.05-.14-.33-.41-.43-.47-.25-.14-.19-.05-.32-.03ZM292.69,279.57c.12.02.14-.08.21-.15.49-.51.84-1.16,1.24-1.73.09-.13.43-.47.46-.56.03-.11-.17-.69-.12-.89-.61.54-.73,1.4-1.09,2.12-.21.42-.49.79-.7,1.21ZM305.73,276.28c-.17-.24-.55-.27-.83-.31-1.03-.17-2.12-.08-3.15-.26.27.24.73.32,1.07.36.94.13,1.96.04,2.9.2ZM309.54,277.71c.37.46.87,1.14.88,1.74.03,1.07-1.78,1.97-1.33,3.19.09.24.42.47.64.29.11-.09.07-.99.12-1.25.19-1.01,1.16-1.09,1.18-1.84.02-.92-.55-1.55-1.26-2.03-.08-.05-.12-.14-.24-.1ZM291.76,280.56c-.32.15-.58.39-.91.51-.64.23-1.44.28-2.11.43-.24.06.12.34.2.4.78.59,1.16.09,1.8-.4.36-.28.72-.6,1.03-.94Z"/>
    <path class="cls-3" d="M304.81,263.77c-.11.15-.27-.35-.28-.41-.1-.55,0-2.33.17-2.87.02-.07.06-.25.15-.26l-.03,3.54Z"/>
    <path class="cls-3" d="M295.6,263.59c-.09.02-.13-.22-.15-.28-.15-.75-.11-2.45-.07-3.26.02-.3.12-.81.23-.23.12.68.12,2.27.09,3.01,0,.26-.04.51-.11.76Z"/>
    <path class="cls-3" d="M299.07,260.29l.24,3.09-.1.62c-.25-.24-.23-.65-.26-.97-.05-.71-.09-1.79-.05-2.5,0-.12,0-.28.16-.25Z"/>
    <path class="cls-3" d="M303.09,260.67c.1.09-.14,2.39-.15,2.71l-.14.21c-.18-.62-.23-2.22.06-2.79.05-.1.16-.19.23-.13Z"/>
    <path class="cls-3" d="M301.18,263.49c-.09.02-.12-.17-.13-.23-.12-.49-.03-2,.15-2.47.11-.29.25-.3.25.03,0,.58-.07,1.6-.15,2.16-.02.17-.16.32-.13.51Z"/>
    <path class="cls-3" d="M296.85,259.94c.14,1.07.06,2.15.05,3.23l-.13.45c-.17-.55-.11-1.17-.1-1.75,0-.51,0-1.1.04-1.6,0-.11-.03-.36.14-.32Z"/>
    <path class="cls-3" d="M306.6,262.95c-.09,0-.14-.28-.15-.35-.09-.53.01-1.9.15-2.43.08-.31.21-.34.24.01.03.5-.05,1.66-.12,2.19-.02.19-.1.38-.12.58Z"/>
    <path class="cls-3" d="M308.14,262.93c-.14-.41-.01-.95.05-1.39.08-.58.2-1.43.37-1.98.03-.08.02-.19.12-.22.02.11.02.22.02.34-.05.81-.22,2.05-.37,2.85-.03.14-.05.33-.19.4Z"/>
    <path class="cls-3" d="M292.71,258.42l.35,4.53c-.12-.1-.18-.31-.21-.46-.24-1.26-.09-2.68-.27-3.96l.12-.11Z"/>
    <path class="cls-3" d="M294.26,263.02c-.1,0-.15-.26-.16-.34-.14-.75-.26-2.38-.16-3.12.01-.11.02-.27.14-.32l.18,3.77Z"/>
    <path class="cls-3" d="M308.11,256.82s-.09,0-.13.01c-.04-.14.03-.27.16-.34.01.06-.02.31-.03.32Z"/>
  </g>
  <g>
    <path class="cls-1" d="M432.75,448.74c-.87,7.4-.63,14.82-.81,22.23-.18,7.21-.4,14.42-.6,21.63-.42,14.98-.66,29.95-.29,44.93.2,8.16.52,16.33,1.51,24.48.03.23.87.23.86,0-.24-15.99-1.09-31.97-.94-47.96.14-14.51.66-29.02.98-43.53.16-7.26.61-14.54-.24-21.79-.01-.13-.46-.13-.47,0h0Z"/>
    <path class="cls-1" d="M433,562.31c-.41,0-.74-.13-.76-.3-1.01-8.25-1.32-16.64-1.51-24.49-.4-16.35-.05-32.6.29-44.93.07-2.36.13-4.73.2-7.09.14-4.85.28-9.69.4-14.54.05-2.03.07-4.06.09-6.1.05-5.29.09-10.76.72-16.13h0c.01-.13.25-.22.55-.22s.53.09.55.22c.69,5.94.51,12,.34,17.86-.04,1.31-.08,2.63-.11,3.94-.11,5-.24,10-.38,14.99-.25,9.35-.51,19.02-.6,28.53-.09,9.97.2,20.1.49,29.91.17,5.92.35,12.03.45,18.05,0,.17-.3.3-.71.31,0,0-.02,0-.02,0ZM432.99,449.44c-.55,5.14-.6,10.36-.64,15.42-.02,2.03-.04,4.07-.09,6.1-.12,4.85-.26,9.69-.4,14.54-.07,2.36-.14,4.73-.2,7.09-.35,12.33-.69,28.58-.29,44.92.19,7.84.51,16.24,1.51,24.48,0,.04.08.05.14.05.1,0,.1-.03.1-.04-.09-6.02-.27-12.13-.44-18.05-.29-9.8-.59-19.94-.49-29.91.09-9.51.35-19.18.6-28.53.13-5,.27-10,.38-14.99.03-1.31.07-2.63.11-3.94.16-5.62.33-11.43-.27-17.14ZM433.06,448.74h0s0,0,0,0Z"/>
  </g>
  <g>
    <path class="cls-1" d="M165.81,453.47c-.46,4.26.06,8.56.22,12.83.15,4.1.23,8.2.31,12.3.15,7.81.13,15.62.02,23.42-.21,15.02-.89,30.04-.99,45.06-.03,4.45-.05,8.91.26,13.36.01.2.72.2.73,0,1.08-15.08.88-30.2,1.22-45.28.35-15.62.49-31.24-.17-46.85-.21-4.93-.07-9.92-1.24-14.83-.02-.1-.35-.1-.36,0h0Z"/>
    <path class="cls-1" d="M165.99,560.71c-.38,0-.67-.12-.68-.28-.32-4.52-.29-9.02-.26-13.36.05-8.28.29-16.69.52-24.83.19-6.63.38-13.48.47-20.23.12-8.67.11-16.33-.02-23.42-.07-3.71-.16-8.03-.31-12.3-.04-1.16-.11-2.32-.18-3.48-.18-3.07-.37-6.24-.03-9.35h0c.01-.11.21-.2.47-.2.25,0,.49.08.51.19.93,3.88,1.04,7.86,1.14,11.72.03,1.04.06,2.08.1,3.12.7,16.52.48,32.96.17,46.86-.1,4.44-.15,8.95-.21,13.31-.13,10.48-.26,21.32-1.01,31.97-.01.16-.3.28-.68.28ZM166.04,454.3c-.23,2.83-.05,5.71.11,8.5.07,1.16.14,2.32.18,3.48.15,4.26.24,8.58.31,12.3.13,7.09.14,14.75.02,23.42-.09,6.74-.29,13.6-.47,20.23-.23,8.14-.47,16.55-.52,24.83-.03,4.35-.06,8.84.26,13.36h.11c.76-10.65.89-21.49,1.01-31.97.05-4.36.11-8.88.21-13.31.31-13.9.53-30.33-.17-46.85-.04-1.04-.07-2.08-.1-3.12-.1-3.58-.2-7.26-.95-10.87ZM166.12,453.47h0Z"/>
  </g>
  <g>
    <path class="cls-1" d="M288.97,292.93c24.51,1.15,50.14,4.24,70.18,19.73,10.49,8.1,17.8,19.1,22.76,31.28,6.09,14.92,9.67,31.31,8.82,47.46-.05.97,1.43.96,1.5,0,1.15-16.28-2.76-32.85-8.77-47.89-4.9-12.26-12.25-23.12-22.55-31.46-19.75-15.99-47.21-20.39-71.94-19.33-.13,0-.13.2,0,.21h0Z"/>
    <path class="cls-1" d="M391.44,392.44s-.05,0-.07,0c-.59-.04-.97-.47-.94-1.05.78-14.94-2.26-31.31-8.8-47.33-5.39-13.21-13.02-23.69-22.67-31.15-19.83-15.32-45.37-18.51-70.01-19.67h0c-.23-.01-.4-.19-.4-.42s.17-.41.4-.42c20.88-.91,50.34,1.73,72.15,19.4,9.84,7.96,17.46,18.59,22.65,31.59,6.87,17.2,9.83,33.36,8.79,48.03-.05.67-.59,1.01-1.11,1.01ZM294.2,292.9c23.1,1.39,46.58,5.17,65.15,19.52,9.73,7.52,17.43,18.09,22.86,31.41,6.57,16.1,9.63,32.56,8.84,47.6-.02.33.24.38.35.39.19.02.49-.07.52-.43,1.03-14.58-1.91-30.65-8.75-47.75-5.15-12.9-12.71-23.44-22.46-31.33-19.9-16.11-46.24-19.64-66.52-19.4ZM288.99,292.62h0s0,0,0,0Z"/>
  </g>
  <g>
    <path class="cls-1" d="M318.83,258.59c15.33.97,29.61,4.5,43.24,11.68,13.45,7.08,25.25,17.09,35.14,28.57,9.92,11.51,17.79,24.89,22.87,39.21,2.69,7.57,4.45,15.53,5.66,23.46,1.48,9.73,1.51,19.55,2.37,29.33.06.71,1.11.73,1.12,0,.15-17.83-1.9-36.26-7.74-53.17-4.84-14.04-12.62-26.99-22.06-38.4-18.41-22.27-47.07-41.44-76.96-41.09-1.22.01-2.43.08-3.64.17-.15.01-.15.23,0,.24h0Z"/>
    <path class="cls-1" d="M428.7,391.69c-.41,0-.85-.28-.9-.82-.32-3.59-.53-7.24-.73-10.77-.35-6.09-.71-12.39-1.64-18.53-1.34-8.82-3.19-16.48-5.64-23.4-4.98-14.05-12.87-27.57-22.81-39.11-10.51-12.2-22.3-21.79-35.05-28.5-12.94-6.82-27.05-10.63-43.12-11.65h0c-.23-.01-.41-.2-.41-.43,0-.23.17-.42.4-.43,1.43-.11,2.59-.16,3.66-.18.28,0,.56,0,.85,0,13.86,0,28.02,4.07,42.1,12.1,12.63,7.21,24.48,17.27,34.26,29.1,10.06,12.17,17.5,25.12,22.11,38.5,5.32,15.42,7.93,33.35,7.75,53.28,0,.48-.34.83-.81.85h-.04ZM321.89,258.5c14.91,1.3,28.13,5.07,40.33,11.49,12.82,6.75,24.67,16.39,35.23,28.65,9.99,11.6,17.92,25.19,22.93,39.31,2.47,6.96,4.32,14.65,5.67,23.52.94,6.18,1.3,12.49,1.65,18.59.2,3.53.41,7.17.73,10.75.02.21.18.24.29.25.09,0,.2-.05.2-.23.17-19.86-2.43-37.72-7.72-53.07-4.59-13.31-11.99-26.2-22-38.31-21.47-25.97-50.14-41.25-76.72-40.97-.19,0-.39,0-.59.01ZM318.85,258.28s0,0,0,0h0Z"/>
  </g>
  <g>
    <path class="cls-1" d="M208.14,388.59c.85-21.04,4.88-42.16,16.11-60.28,5.48-8.84,12.74-16.52,21.38-22.32,4.64-3.12,9.7-5.55,14.93-7.48,2.52-.93,5.11-1.68,7.71-2.33,3.8-.96,7.11-2.26,11.12-2.33.28,0,.36-.46.07-.5-5.77-.8-12.1,1.74-17.56,3.44-5.21,1.62-10.19,3.94-14.87,6.73-9.17,5.47-16.8,13.2-22.75,22.02-12.27,18.17-17.46,41.35-16.71,63.07.01.37.55.37.57,0h0Z"/>
    <path class="cls-1" d="M207.86,389.18h0c-.33,0-.58-.25-.59-.58-.8-23.24,5.31-46.3,16.77-63.26,6.37-9.43,14.06-16.87,22.85-22.11,4.92-2.93,9.94-5.21,14.94-6.76.82-.26,1.66-.53,2.52-.81,4.78-1.56,10.2-3.33,15.17-2.64.28.04.47.28.45.56-.02.31-.26.56-.56.56-2.95.05-5.51.78-8.22,1.55-.92.26-1.86.53-2.83.77-2.99.75-5.43,1.49-7.68,2.32-5.66,2.09-10.52,4.53-14.87,7.45-8.43,5.66-15.79,13.35-21.28,22.22-9.82,15.84-15.07,35.51-16.06,60.13-.01.33-.27.58-.6.58ZM277.2,293.5c-4.21,0-8.67,1.46-12.67,2.76-.86.28-1.7.56-2.53.81-4.95,1.54-9.93,3.79-14.8,6.7-8.71,5.19-16.33,12.57-22.65,21.92-11.25,16.66-17.31,39.24-16.68,62.08,1.08-24.36,6.35-43.87,16.12-59.64,5.55-8.95,12.97-16.7,21.47-22.41,4.39-2.95,9.29-5.41,15-7.52,2.28-.84,4.74-1.59,7.75-2.34.96-.24,1.89-.51,2.81-.77,2.5-.71,4.88-1.39,7.57-1.55-.45-.04-.91-.05-1.38-.05Z"/>
  </g>
  <g>
    <path class="cls-1" d="M173.31,388.59c-1.38-27.83,4.26-55.02,19.66-78.52,12.09-18.44,29.34-33.44,49-43.35,11.48-5.79,23.96-9.69,36.86-10.11.51-.02.5-.74,0-.78-7.17-.63-14.52,1.04-21.34,3.12-8.79,2.67-17.19,6.63-25.07,11.34-18.99,11.33-34.95,27.74-45.62,47.11-11.87,21.55-16.53,46.78-14.24,71.2.04.47.77.49.74,0h0Z"/>
    <path class="cls-1" d="M172.97,389.26c-.33,0-.68-.23-.72-.64-2.35-25.05,2.71-50.4,14.27-71.38,10.71-19.43,26.52-35.76,45.73-47.22,8.44-5.04,16.9-8.86,25.14-11.37,5.95-1.81,13.77-3.81,21.46-3.13.39.03.67.35.66.74-.01.38-.3.66-.68.67-11.87.38-24.22,3.77-36.73,10.08-20.06,10.11-36.97,25.07-48.88,43.24-14.5,22.12-21.09,48.47-19.61,78.33h0c.02.37-.24.66-.6.69-.02,0-.03,0-.05,0ZM275.72,256.01c-6.56,0-13.04,1.69-18.14,3.24-8.2,2.49-16.61,6.3-25,11.31-19.12,11.41-34.85,27.66-45.5,46.99-11.5,20.87-16.54,46.09-14.2,71.02.08.08.11.08.12.07l.31-.04-.31.02c-1.49-29.99,5.14-56.47,19.71-78.71,11.97-18.27,28.96-33.3,49.12-43.46,12.59-6.35,25.04-9.76,36.99-10.14.06,0,.07-.02.07-.06,0-.04-.01-.09-.09-.1-1.03-.09-2.06-.13-3.08-.13Z"/>
  </g>
  <g>
    <path class="cls-1" d="M211.99,385.21c-.19-8.34,2.83-16.6,6.43-23.98,3.56-7.28,8.25-14.23,13.77-20.16,11.21-12.05,25.68-20.39,41.73-24.01,15.33-3.46,31.83-2.44,47,1.32,12.92,3.2,25.04,9.25,34.99,18.13,6.59,5.88,11.98,12.98,16.29,20.66,4.78,8.54,7.56,17.74,10.42,27.03.17.54.92.31.83-.23-4.23-25.24-20.68-48.33-43.4-60.04-12.03-6.2-25.43-9.08-38.84-10.14-15.2-1.2-30.56,1.09-44.46,7.45-12.45,5.69-23.36,14.86-31.46,25.86-7.87,10.69-15.04,24.46-13.68,38.12.02.24.39.25.38,0h0Z"/>
    <path class="cls-1" d="M211.82,385.71c-.27,0-.49-.2-.52-.47-1.15-11.5,3.48-24.4,13.74-38.33,8.37-11.36,19.29-20.33,31.58-25.96,13.42-6.13,28.84-8.72,44.61-7.48,15.27,1.2,28.01,4.53,38.96,10.17,22.59,11.64,39.29,34.73,43.57,60.27.07.41-.18.79-.58.88-.39.09-.74-.12-.86-.51l-.21-.7c-2.85-9.24-5.53-17.98-10.18-26.27-4.54-8.11-10-15.04-16.22-20.58-9.58-8.54-21.63-14.78-34.86-18.06-16.44-4.07-32.65-4.53-46.86-1.32-15.99,3.61-30.36,11.88-41.57,23.92-5.38,5.78-10.13,12.73-13.72,20.09-4.53,9.27-6.56,16.84-6.4,23.84h0c0,.27-.19.49-.46.5-.01,0-.02,0-.03,0ZM293.72,314.62c8.81,0,18.01,1.15,27.28,3.45,13.32,3.3,25.47,9.59,35.12,18.2,6.27,5.59,11.77,12.57,16.35,20.75,4.68,8.36,7.5,17.53,10.23,26.4l.22.7c.02.07.06.1.12.08.02,0,.13-.04.11-.17-4.25-25.34-20.82-48.26-43.24-59.81-10.88-5.6-23.54-8.91-38.72-10.11-15.67-1.24-30.98,1.33-44.3,7.42-12.2,5.58-23.03,14.48-31.34,25.76-9.23,12.53-13.85,24.19-13.79,34.72.43-6.2,2.5-12.94,6.39-20.91,3.62-7.41,8.4-14.41,13.82-20.24,11.29-12.13,25.77-20.46,41.89-24.1,6.28-1.42,12.96-2.13,19.87-2.13Z"/>
  </g>
  <g>
    <path class="cls-1" d="M312.72,295.32c-5.12-1.46-10.51-2.25-15.79-2.77-4.66-.46-11.32-1.07-15.45,1.67-.33.22-.11.68.26.62,5.18-.9,9.9-1.46,15.19-1.04,5.28.42,10.45,1.56,15.7,2.18.39.05.44-.56.09-.66h0Z"/>
    <path class="cls-1" d="M312.67,296.3s-.05,0-.08,0c-2.21-.26-4.44-.62-6.59-.96-2.97-.48-6.04-.97-9.09-1.21-5.21-.41-9.81.11-15.11,1.03-.32.05-.63-.11-.74-.41-.12-.29-.01-.6.26-.78,4.28-2.84,11.12-2.17,15.65-1.72,6.35.62,11.38,1.51,15.85,2.78.33.09.52.43.45.78-.06.3-.3.5-.59.5ZM293.28,293.35c1.2,0,2.42.05,3.67.15,3.08.24,6.16.74,9.14,1.22,2.15.34,4.37.7,6.57.96l-.03-.05c-4.43-1.26-9.43-2.14-15.74-2.75-4.44-.44-11.15-1.1-15.25,1.62,4.1-.67,7.78-1.14,11.63-1.14Z"/>
  </g>
  <g>
    <path class="cls-1" d="M282.55,256.22c.67,6.64,1.27,13.29,2.09,19.91.38,3.07.85,6.15,1.65,9.15.44,1.64.97,3.57,2.5,4.5.31.19.72-.19.51-.51-2.9-4.34-3.24-10.5-3.88-15.52-.74-5.82-.92-11.9-2.42-17.59-.06-.25-.48-.2-.45.06h0Z"/>
    <path class="cls-1" d="M288.96,290.14c-.12,0-.24-.03-.34-.1-1.66-1.01-2.2-3.05-2.64-4.68-.85-3.18-1.31-6.43-1.66-9.19-.61-4.9-1.1-9.89-1.57-14.72-.17-1.73-.34-3.47-.52-5.2h0c-.03-.27.15-.51.43-.56.29-.05.56.11.63.39,1.05,4.01,1.46,8.25,1.86,12.35.17,1.74.34,3.54.56,5.29.09.67.17,1.36.25,2.07.52,4.51,1.11,9.61,3.58,13.31.17.26.14.59-.08.82-.14.15-.32.22-.51.22ZM282.98,257.39c.13,1.33.26,2.66.4,4,.48,4.83.97,9.81,1.57,14.7.34,2.74.8,5.96,1.64,9.1.41,1.53.92,3.43,2.36,4.31l.09-.06c-2.56-3.83-3.16-9.02-3.69-13.6-.08-.7-.16-1.39-.25-2.06-.22-1.75-.4-3.56-.57-5.3-.36-3.68-.72-7.47-1.56-11.09Z"/>
  </g>
  <g>
    <path class="cls-1" d="M308.32,289.82c-2.05-2.13-6.48-1.91-9.16-1.97-3.52-.08-8.87-.44-12.07,1.27-.37.2-.15.67.19.71,3.24.37,6.97-.64,10.26-.73,3.39-.09,7.26-.22,10.44,1.16.28.12.57-.2.34-.44h0Z"/>
    <path class="cls-1" d="M308.11,290.6c-.08,0-.17-.02-.25-.05-3.06-1.33-6.83-1.23-10.15-1.13h-.15c-1.29.04-2.68.22-4.03.4-2.1.28-4.28.56-6.28.34-.32-.04-.59-.29-.65-.6-.05-.29.08-.55.35-.7,2.96-1.58,7.67-1.44,11.12-1.34l1.1.03c.3,0,.63.01.97.01,2.74.03,6.5.07,8.41,2.05h0c.2.21.23.5.07.73-.12.17-.31.26-.51.26ZM300.37,288.73c2.58,0,5.26.2,7.6,1.18-1.77-1.67-5.27-1.71-7.84-1.73-.34,0-.67,0-.98-.01l-1.11-.03c-3.38-.1-8-.24-10.81,1.27.02.1.05.12.08.12,1.92.22,4.06-.06,6.12-.33,1.36-.18,2.77-.37,4.1-.4h.15c.87-.03,1.77-.05,2.68-.05Z"/>
  </g>
  <g>
    <path class="cls-1" d="M316.04,258.24c-1.4,5.1-1.71,10.59-2.63,15.8-.5,2.84-1.06,5.67-1.68,8.49-.54,2.44-1.48,4.88-1.86,7.34-.09.55.65.96.96.4,2.35-4.24,2.79-10.33,3.61-15.03.94-5.42,2.36-11.45,1.92-16.96-.01-.18-.27-.23-.32-.04h0Z"/>
    <path class="cls-1" d="M310.42,290.86c-.09,0-.17-.01-.26-.04-.41-.14-.67-.56-.6-.99.23-1.46.65-2.92,1.06-4.33.29-1,.59-2.03.81-3.03.59-2.69,1.15-5.54,1.67-8.48.33-1.88.59-3.83.84-5.73.44-3.36.9-6.83,1.8-10.1.06-.22.25-.37.49-.34.24.02.42.21.44.45.37,4.6-.53,9.47-1.4,14.17-.18.97-.36,1.93-.52,2.87-.17.98-.32,2.02-.48,3.09-.6,4.05-1.28,8.64-3.16,12.05-.15.28-.4.43-.68.43ZM316.11,259.24c-.73,2.96-1.14,6.07-1.54,9.1-.25,1.9-.51,3.86-.84,5.75-.52,2.95-1.09,5.81-1.68,8.51-.23,1.03-.53,2.07-.82,3.07-.4,1.39-.82,2.83-1.04,4.25-.02.15.09.27.18.3.06.02.12.02.19-.09,1.83-3.31,2.5-7.84,3.09-11.83.16-1.07.31-2.12.48-3.1.16-.94.34-1.9.52-2.88.8-4.35,1.63-8.83,1.45-13.07ZM316.35,258.32h0s0,0,0,0ZM316.05,258.31h0s0,0,0,0Z"/>
  </g>
  <g>
    <path class="cls-1" d="M368.19,410.76c2.58,2.78,3.76,5.84,5.05,9.35.73,2,1.68,5.01,4.06,5.47.31.06.65-.27.44-.58-1.74-2.56-2.97-4.99-4.15-7.87-1.05-2.56-2.41-5.57-5.05-6.83-.29-.14-.58.2-.35.45h0Z"/>
    <path class="cls-1" d="M377.38,425.9s-.09,0-.13-.01c-2.41-.46-3.42-3.25-4.15-5.28l-.14-.38c-1.37-3.75-2.54-6.6-4.99-9.25h0c-.2-.22-.22-.53-.05-.76.18-.24.49-.32.77-.19,2.68,1.27,4.1,4.28,5.21,6.99,1.25,3.06,2.49,5.4,4.12,7.81.16.23.16.5,0,.73-.14.21-.39.34-.64.34ZM368.5,410.64c2.48,2.71,3.65,5.6,5.04,9.37l.14.39c.69,1.9,1.62,4.49,3.68,4.88.03,0,.07,0,.1-.03-1.64-2.51-2.89-4.88-4.16-7.99-1.1-2.69-2.38-5.41-4.8-6.62Z"/>
  </g>
  <g>
    <path class="cls-1" d="M374.87,388.51c-1.35,4.19-2.65,8.36-4.2,12.49-1.33,3.55-3.45,7.44-3.78,11.25-.03.38.52.49.69.19,1.93-3.32,2.87-7.52,4.19-11.13,1.5-4.08,3.07-8.31,3.65-12.64.05-.37-.45-.53-.57-.16h0Z"/>
    <path class="cls-1" d="M367.27,412.92c-.07,0-.15-.01-.23-.03-.3-.1-.48-.36-.46-.67.24-2.83,1.44-5.66,2.6-8.39.43-1.02.84-1.98,1.2-2.94,1.38-3.69,2.59-7.48,3.77-11.15l.42-1.32c.1-.31.38-.48.7-.41.32.07.53.38.48.71-.58,4.27-2.1,8.42-3.57,12.44l-.1.27c-.41,1.11-.77,2.25-1.15,3.46-.84,2.65-1.72,5.39-3.06,7.71-.12.21-.35.33-.59.33ZM375.1,388.82l-.35,1.1c-1.18,3.68-2.4,7.48-3.78,11.18-.36.97-.77,1.94-1.21,2.96-1.14,2.69-2.32,5.47-2.55,8.2l.38.16-.27-.16c1.31-2.26,2.17-4.97,3.01-7.59.37-1.16.75-2.37,1.16-3.49l.1-.27c1.44-3.92,2.92-7.98,3.51-12.11Z"/>
  </g>
  <g>
    <path class="cls-1" d="M221.42,387.61c.22-.04,3.61,8.81,3.85,9.42,1.26,3.23,2.67,6.78,3.19,10.21.03.2.29.22.42.11,1.05-.92.38-2.92.08-3.99-.77-2.74-1.85-5.4-2.96-8.02-.37-.89-3.08-8.54-4.66-8.03-.19.06-.11.33.08.29h0Z"/>
    <path class="cls-1" d="M228.69,407.73c-.07,0-.14-.01-.2-.04-.18-.07-.31-.22-.33-.41-.5-3.28-1.85-6.74-3.04-9.8l-.29-.74c-2.65-6.86-3.37-8.48-3.57-8.84-.15-.04-.28-.17-.32-.33-.06-.24.07-.48.31-.55,1.17-.39,2.61,1.91,4.82,7.64.1.27.18.47.22.57,1.02,2.42,2.18,5.23,2.97,8.05l.07.24c.33,1.15.89,3.09-.24,4.07-.11.09-.25.14-.4.14ZM221.87,387.76c.44.82,1.32,3,3.55,8.77l.29.74c1.19,3.04,2.53,6.49,3.05,9.79.73-.74.26-2.37-.03-3.36l-.07-.24c-.78-2.79-1.93-5.58-2.94-7.98-.05-.11-.12-.31-.23-.59-1.95-5.07-3.04-6.67-3.61-7.12Z"/>
  </g>
  <g>
    <path class="cls-1" d="M227.51,405.99c-.36.35-.78.38-1.23.79-.99.91-1.84,2.05-2.63,3.12-.53.72-3.63,5.12-1.24,5.5.23.04.43-.09.44-.34.09-2.09,1.33-3.75,2.5-5.41.59-.84,1.26-1.63,1.84-2.49.27-.4.15-.7.45-1.05.07-.09-.04-.21-.12-.12h0Z"/>
    <path class="cls-1" d="M222.49,415.72s-.08,0-.12,0c-.66-.1-.93-.47-1.05-.76-.61-1.48,1.63-4.63,2.09-5.24.77-1.04,1.65-2.23,2.68-3.17.26-.24.51-.36.73-.47.19-.09.35-.17.49-.31.15-.15.39-.16.55-.01.16.15.18.39.04.56-.11.13-.14.24-.18.41-.04.17-.09.38-.25.62-.32.47-.67.93-1.01,1.37-.28.37-.57.74-.83,1.12l-.18.26c-1.07,1.52-2.17,3.1-2.26,4.99,0,.2-.09.37-.24.49-.12.1-.28.15-.44.15ZM227.07,406.64c-.2.1-.39.19-.58.37-.98.9-1.84,2.06-2.59,3.08-.87,1.18-2.41,3.66-2.01,4.63.05.13.17.31.57.37l.39-.03h-.31c.09-2.08,1.25-3.74,2.37-5.33l.18-.26c.27-.39.56-.77.85-1.14.34-.44.67-.88.98-1.34.08-.12.12-.23.15-.35Z"/>
  </g>
  <g>
    <path class="cls-1" d="M145.9,388.79c9.67,1.1,19.84-.08,29.52-.61,10.2-.56,20.59-.43,30.75-1.44.51-.05.51-.74,0-.79-9.7-.92-19.82.26-29.52.81-10.19.58-20.62.45-30.75,1.64-.25.03-.25.36,0,.39h0Z"/>
    <path class="cls-1" d="M154.67,389.55c-2.96,0-5.91-.12-8.81-.45h0c-.27-.03-.47-.24-.47-.5,0-.26.2-.48.47-.51,6.59-.78,13.4-1,19.98-1.21,3.55-.11,7.21-.23,10.78-.44,2.16-.12,4.33-.28,6.52-.43,7.61-.54,15.48-1.1,23.05-.38.39.04.67.33.67.7,0,.37-.28.67-.67.71-6.31.62-12.8.81-19.08,1-3.84.11-7.8.23-11.68.44-2.06.11-4.14.26-6.23.4-4.79.33-9.69.66-14.54.66ZM146.99,388.58c7.26.7,14.84.18,22.18-.32,2.09-.14,4.18-.29,6.24-.4,3.88-.21,7.85-.33,11.69-.44,6.27-.18,12.75-.37,19.04-1,.07,0,.1-.04.1-.09s-.03-.08-.1-.08c-7.52-.71-15.37-.16-22.95.38-2.19.16-4.37.31-6.53.43-3.58.2-7.25.32-10.8.44-6.22.2-12.64.41-18.87,1.08ZM145.93,388.47h0Z"/>
  </g>
  <g>
    <path class="cls-1" d="M372.4,388.81c6.57-1.08,13.26-.27,19.88-.05,7.86.25,15.71.77,23.55,1.33,16.05,1.15,32.22,2.87,48.33,2.27.5-.02.5-.75,0-.77-16.55-.7-33.04-1.82-49.57-2.99-8.25-.58-16.51-1.05-24.78-1.23-5.68-.12-12.2-1.33-17.58,1.02-.26.11-.06.46.18.42h0Z"/>
    <path class="cls-1" d="M457.28,392.79c-10.74,0-21.56-.85-32.08-1.67-3.14-.25-6.27-.49-9.4-.72-8.73-.63-16.08-1.09-23.53-1.33-1.6-.05-3.19-.14-4.79-.22-4.95-.27-10.06-.54-15.02.27-.28.03-.56-.13-.64-.41-.07-.25.04-.5.29-.6,4.21-1.84,9.03-1.54,13.7-1.25,1.4.09,2.71.17,4.01.2,7.18.15,15.06.54,24.8,1.23,15.88,1.12,32.79,2.28,49.56,2.98.44.02.68.37.67.71,0,.39-.29.68-.68.7-2.29.09-4.58.12-6.88.12ZM379.96,387.95c2.54,0,5.06.14,7.55.27,1.6.09,3.19.17,4.78.22,7.47.24,14.82.71,23.56,1.33,3.13.22,6.26.47,9.4.72,12.76,1,25.95,2.03,38.89,1.55.03,0,.07,0,.07-.07,0-.07-.05-.07-.07-.08-16.78-.71-33.69-1.86-49.58-2.99-9.73-.69-17.6-1.08-24.77-1.22-1.31-.03-2.64-.11-4.04-.2-4.33-.27-8.8-.55-12.7.91,2.29-.33,4.6-.44,6.91-.44Z"/>
  </g>
  <g>
    <path class="cls-1" d="M374.36,389.38c2.92,3.22,4.92,7.11,6.67,11.06,1.8,4.05,2.74,8.78,5.08,12.54.17.27.7.19.65-.18-.54-4.14-2.6-8.28-4.27-12.08-1.91-4.34-4.28-8.47-7.68-11.81-.3-.29-.74.15-.46.46h0Z"/>
    <path class="cls-1" d="M386.44,413.46c-.23,0-.46-.11-.58-.31-1.46-2.35-2.39-5.08-3.29-7.71-.55-1.63-1.13-3.32-1.82-4.87-1.58-3.55-3.59-7.63-6.62-10.98h0c-.24-.26-.22-.65.03-.9.25-.24.62-.24.88,0,3.02,2.98,5.48,6.76,7.74,11.91.23.51.46,1.03.69,1.55,1.54,3.43,3.13,6.98,3.6,10.61.04.29-.12.55-.4.65-.08.03-.16.04-.24.04ZM374.6,389.17c3.09,3.41,5.13,7.55,6.73,11.14.7,1.58,1.28,3.28,1.84,4.92.89,2.61,1.8,5.3,3.22,7.58.02.01.07.01.09,0-.48-3.51-2.05-7.02-3.57-10.41-.24-.52-.47-1.04-.69-1.56-2.23-5.07-4.65-8.8-7.61-11.71l-.24.24.23-.21Z"/>
  </g>
  <g>
    <path class="cls-1" d="M220.66,386.63c-3.56,2.5-5.69,6.29-7.4,10.21-1.88,4.33-3.99,9.49-4.65,14.18-.06.41.47.7.71.3,2.02-3.39,2.73-7.81,4.04-11.53,1.66-4.74,3.89-9.28,7.68-12.67.26-.24-.09-.7-.38-.49h0Z"/>
    <path class="cls-1" d="M209.02,411.82c-.07,0-.15-.01-.22-.04-.33-.12-.54-.46-.49-.81.64-4.57,2.62-9.56,4.67-14.26,1.57-3.6,3.69-7.65,7.5-10.34.26-.18.61-.13.82.14.21.27.19.63-.05.85-3.22,2.87-5.56,6.74-7.59,12.54-.43,1.22-.78,2.49-1.16,3.83-.75,2.68-1.53,5.44-2.9,7.75-.13.22-.35.35-.57.35ZM220.81,386.91c-3.67,2.6-5.73,6.54-7.26,10.05-2.03,4.66-3.99,9.6-4.62,14.1-.01.08.05.12.07.13,1.38-2.27,2.15-5,2.89-7.64.36-1.3.74-2.63,1.17-3.87,2.07-5.89,4.46-9.83,7.74-12.78Z"/>
  </g>
  <g>
    <path class="cls-1" d="M389.31,411.38c10.6-1.44,21.18-1.26,31.83-.47,10.33.76,20.82,2.36,31.19,1.76.54-.03.54-.81,0-.84-10.78-.71-21.54-1.56-32.32-2.32-10.23-.72-20.8-1.14-30.84,1.35-.35.09-.19.56.14.52h0Z"/>
    <path class="cls-1" d="M447.61,413.11c-6.02,0-12.09-.58-18-1.14-2.79-.27-5.68-.54-8.5-.75-12.7-.94-22.5-.79-31.76.47h0c-.36.04-.63-.21-.68-.49-.06-.3.12-.57.42-.64,10.23-2.54,20.9-2.07,30.93-1.36,4.41.31,8.81.63,13.21.96,6.26.46,12.74.94,19.11,1.36.46.03.7.4.7.74,0,.34-.24.7-.7.73-1.57.09-3.15.13-4.73.13ZM406.16,409.99c4.59,0,9.53.2,15,.61,2.83.21,5.72.48,8.51.75,7.44.71,15.13,1.45,22.63,1.01.03,0,.11,0,.11-.1,0-.07-.04-.11-.11-.11-6.37-.42-12.85-.9-19.11-1.36-4.4-.32-8.81-.65-13.21-.96-9.71-.68-20-1.15-29.88,1.14,5.05-.65,10.28-.97,16.06-.97Z"/>
  </g>
  <g>
    <path class="cls-1" d="M151.58,407.92c9.46-3.33,20.27-2.95,30.13-2.33,10.11.65,20.03,2.8,30.1,3.61.39.03.45-.56.09-.66-9.94-2.77-20.86-3.65-31.11-4.28-9.66-.59-20.37-.84-29.34,3.32-.19.09-.05.4.14.33h0Z"/>
    <path class="cls-1" d="M211.83,409.52s-.04,0-.06,0c-4.74-.38-9.53-1.07-14.15-1.74-5.21-.75-10.59-1.53-15.94-1.87-10.04-.64-20.64-.99-30,2.31h0c-.24.09-.51-.04-.61-.29-.1-.25,0-.52.23-.62,9.05-4.2,19.97-3.93,29.49-3.35,9.77.6,21.05,1.47,31.18,4.29.32.09.52.42.46.76-.06.31-.3.52-.6.52ZM170.74,404.85c3.68,0,7.37.19,10.99.42,5.37.34,10.77,1.12,15.99,1.88,4.62.67,9.39,1.36,14.11,1.74-10.09-2.85-21.32-3.72-31.07-4.32-8.44-.52-17.98-.78-26.28,2.12,5.22-1.4,10.73-1.84,16.26-1.84Z"/>
  </g>
  <g>
    <path class="cls-1" d="M398.11,426.47c1.4,1.75,1.61,2.83,4.08,2.66.32-.02.53-.24.55-.55.31-4.25-3.31-6.74-7.19-5.04-3.98,1.74-4.18,7.78-1.88,10.84,2.54,3.37,7.65,3.87,11.5,3.4,4.31-.52,8.12-2.98,10.48-6.62,4.93-7.6-1.93-16.68-8.58-20.29-8.97-4.86-19.47.27-20.38,10.83-.83,9.61,5.58,17.41,10.41,25.05,2.68,4.24,5.31,8.54,7.23,13.19,2.03,4.94,2.6,10.08,2.85,15.37.04.82,1.26.83,1.28,0,.19-7.01-1.57-13.68-4.68-19.93-3.52-7.06-8.49-13.23-12.28-20.13-3.99-7.27-5.64-17.44,1.94-23.1,4-2.99,9.32-2.04,13.42.18,4.12,2.23,7.53,6.17,8.7,10.74,1.32,5.15-1.96,9.84-6.42,12.15-4.22,2.19-11.54,2.13-14.64-1.94-2-2.63-1.1-7.04,1.69-8.67,1.66-.97,3.78-.39,4.85,1.11,2.12,2.96-1.31,1.92-2.66.43-.18-.2-.44.09-.28.28h0Z"/>
    <path class="cls-1" d="M407.83,476.27c-.46,0-.93-.31-.96-.92-.23-4.92-.73-10.18-2.83-15.27-1.89-4.58-4.48-8.83-7.2-13.14-.72-1.15-1.48-2.3-2.25-3.46-4.39-6.65-8.92-13.52-8.21-21.79.43-5,3.03-9.13,7.13-11.34,4.15-2.24,9.28-2.14,13.71.26,4.03,2.18,8.69,6.76,10.05,12.06.8,3.14.35,6.06-1.35,8.67-2.44,3.77-6.35,6.24-10.71,6.76-1.97.24-8.62.68-11.79-3.53-1.41-1.86-1.92-4.77-1.27-7.24.5-1.93,1.67-3.38,3.27-4.08,1.97-.86,3.98-.74,5.51.34,1.51,1.07,2.28,2.89,2.12,5.01-.04.47-.38.81-.84.84-2.21.14-2.8-.68-3.7-1.91-.19-.27-.4-.56-.65-.87h0c-.18-.23-.15-.55.07-.74.21-.18.5-.16.69.05.9,1,2.48,1.54,2.76,1.32.05-.04.1-.39-.59-1.35-1.02-1.43-2.98-1.88-4.44-1.02-1.25.74-2.16,2.1-2.49,3.75-.33,1.66,0,3.28.89,4.45,2.89,3.8,9.9,4.11,14.24,1.85,4.08-2.12,7.59-6.59,6.26-11.8-1.1-4.3-4.3-8.24-8.55-10.54-4.85-2.62-9.74-2.7-13.08-.2-7.5,5.6-5.68,15.72-1.85,22.7,1.7,3.09,3.66,6.08,5.57,8.98,2.34,3.57,4.77,7.26,6.72,11.16,3.32,6.65,4.9,13.4,4.72,20.08-.02.6-.48.92-.94.93h0ZM400,409.36c-2.16,0-4.28.51-6.18,1.54-3.91,2.11-6.39,6.06-6.8,10.84-.69,8.06,3.78,14.84,8.1,21.39.77,1.16,1.53,2.32,2.25,3.46,2.73,4.34,5.35,8.61,7.25,13.24,2.13,5.18,2.64,10.5,2.87,15.48.01.3.28.32.34.32.06-.03.31-.02.32-.32.18-6.57-1.38-13.22-4.65-19.78-1.93-3.87-4.35-7.55-6.68-11.1-1.91-2.91-3.89-5.91-5.59-9.02-3.95-7.19-5.79-17.66,2.03-23.5,3.54-2.65,8.69-2.59,13.75.15,4.4,2.38,7.71,6.47,8.86,10.94,1.42,5.54-2.28,10.28-6.58,12.51-4.56,2.37-11.96,2.01-15.03-2.03-1-1.32-1.37-3.12-1.01-4.96.36-1.82,1.37-3.34,2.78-4.17,1.75-1.02,4.06-.5,5.27,1.2.29.41,1.17,1.64.47,2.2-.57.46-1.83,0-2.8-.68.02.02.03.04.05.06.86,1.18,1.29,1.77,3.15,1.66.16-.01.25-.1.26-.26.14-1.89-.54-3.51-1.86-4.45-1.34-.95-3.13-1.05-4.89-.28-1.83.8-2.59,2.43-2.92,3.66-.6,2.29-.13,4.98,1.16,6.7,2.97,3.94,9.34,3.51,11.21,3.28,4.17-.5,7.91-2.86,10.26-6.48,1.6-2.46,2.03-5.21,1.27-8.18-1.31-5.12-5.83-9.55-9.74-11.66-2.21-1.19-4.59-1.79-6.93-1.79Z"/>
  </g>
  <g>
    <path class="cls-1" d="M198.59,429.06c-.04-.14-.07-.33-.18-.44-.09-.09-.17-.19-.26-.28-.84-.58-.95-.91-.35-1.01.07.37.37.45.48.85.15.56.21-.17-.25.36.19.02.38.03.57.05-.41-.3-.47-.71-.19-1.23,1.84-.15,2.83,1.12,2.89,2.82.09,2.62-1.99,5.15-4.35,5.99-3.57,1.27-6.5-2.78-7.91-5.42-3.29-6.16-2.35-13.33,4.05-16.87,5.61-3.11,13.13-1.17,17.45,3.2,5.9,5.98,3.4,15.08-.96,21.06-3.72,5.1-9,8.67-13.1,13.4-2.35,2.71-14.11,17.69-4.52,18.64.62.06,1.21.05,1.83.02.64-.04.61-.9,0-.97-2.93-.33-4.54-1.55-3.82-4.61.61-2.58,2.23-4.97,3.69-7.12,3.03-4.45,6.74-7.88,10.63-11.54,4.76-4.47,9.34-9.59,10.77-16.14,1.23-5.59-.67-11.39-5.03-15.05-7.34-6.15-21.02-4.63-23.95,5.52-2.03,7.04,5.86,23.24,14.16,15.29,3.76-3.61,2.87-10.38-3.25-9.28-.21.04-.38.24-.43.43-.34,1.13.55,2.08,1.3,2.85.22.23.63.24.86,0,.32-.34.57-.67.8-1.08.14-.25.09-.52-.09-.73.07-.09.07-.19.02-.32,0-.2-.11-.41-.29-.51-.11-.07-.21-.13-.32-.2-.07-.23-.29-.43-.55-.42-.38.01-.75.03-1.13.06-.34.02-.56.31-.49.64.25,1.19.86,1.3,1.35,2.28.16.32.68.1.57-.24h0Z"/>
    <path class="cls-1" d="M192.91,470.53c-.35,0-.67-.01-.99-.05-1.94-.19-3.19-.96-3.71-2.27-2.06-5.17,7.93-16.76,8.03-16.88,1.78-2.05,3.8-3.9,5.76-5.7,2.57-2.36,5.23-4.8,7.33-7.68,4.52-6.2,6.58-15,.99-20.65-3.91-3.95-11.22-6.4-17.08-3.15-5.77,3.2-7.38,9.96-3.92,16.45,1.07,2.01,3.96,6.54,7.53,5.27,2.11-.75,4.23-3.08,4.14-5.68-.03-.86-.32-1.57-.81-2.01-.09-.08-.2-.16-.3-.22.07.23.04.48-.08.7-.06.1-.12.2-.18.3l.06.05h-.09c-.18.27-.39.52-.64.79-.16.17-.4.27-.64.28-.24-.02-.5-.1-.67-.27-.71-.73-1.78-1.83-1.37-3.16.09-.28.33-.59.68-.65,2.47-.45,4.41.34,5.33,2.14,1.16,2.28.38,5.58-1.81,7.68-3.24,3.1-6.15,2.41-8.03,1.28-4.96-3-8-12.2-6.65-16.88,1.22-4.22,4.35-7.3,8.81-8.67,5.37-1.64,11.51-.47,15.64,2.99,4.43,3.71,6.4,9.59,5.14,15.35-1.48,6.76-6.33,12.03-10.87,16.3l-.39.36c-3.75,3.52-7.3,6.85-10.2,11.12-1.43,2.1-3.05,4.48-3.65,7.02-.29,1.22-.2,2.14.27,2.8.54.77,1.61,1.24,3.28,1.43.5.06.76.46.74.84-.01.42-.33.73-.76.76-.33.02-.62.03-.89.03ZM199.2,412.01c4.44,0,8.81,2.06,11.55,4.84,5.85,5.92,3.75,15.05-.93,21.46-2.14,2.93-4.82,5.39-7.41,7.77-1.94,1.79-3.96,3.63-5.71,5.65-2.56,2.95-9.51,12.26-7.92,16.24.44,1.1,1.48,1.72,3.19,1.88.54.05,1.07.06,1.78.02.11,0,.17-.06.17-.15,0-.03,0-.18-.19-.2-1.85-.21-3.07-.76-3.72-1.69-.58-.83-.7-1.91-.37-3.31.63-2.65,2.28-5.08,3.74-7.23,2.94-4.33,6.51-7.68,10.29-11.23l.39-.36c4.47-4.2,9.24-9.38,10.68-15.97,1.21-5.53-.67-11.18-4.93-14.74-3.91-3.27-9.96-4.43-15.05-2.87-4.26,1.3-7.24,4.23-8.39,8.24-1.29,4.48,1.62,13.3,6.37,16.17,2.42,1.46,4.93,1.05,7.27-1.19,2-1.92,2.72-4.9,1.68-6.94-.52-1.02-1.41-1.65-2.58-1.85l.19.12c.19.1.34.3.4.52.33.11.62.28.87.51.62.55.98,1.43,1.02,2.46.1,2.89-2.24,5.47-4.56,6.29-4.04,1.44-7.14-3.42-8.29-5.57-3.63-6.81-1.92-13.92,4.17-17.29,1.99-1.1,4.14-1.58,6.28-1.58ZM198.29,429.16s0,0,0,0l.29-.1-.3.09ZM198.13,428.87c.05.09.11.18.16.28l-.03-.1c-.02-.06-.03-.13-.06-.17h-.07ZM198.7,428.27s.05.04.08.06l.33.24c.05-.08.09-.15.14-.23.08-.15.02-.28-.06-.37l-.17-.19.07-.09c-.15-.02-.31-.03-.48-.03-.06.14-.07.26-.06.35,0,.03.02.06.03.09,0,0,0,0,0,0l.13.06v.1ZM198.31,426.64h0c-.38.01-.75.03-1.12.06-.07,0-.13.03-.17.08-.04.05-.05.11-.03.18.04.19.09.35.15.48.06-.23.27-.37.62-.43l.3-.05.06.29s.02-.04.03-.06l.08-.15h.17c.11-.02.22-.04.33-.03l-.14-.09-.03-.11c-.03-.09-.12-.19-.22-.19Z"/>
  </g>
  <g>
    <path class="cls-1" d="M190.88,473.95c5.94,2.48,15.83.97,16.42-7.01.16-2.24-1.57-4.19-3.65-4.71-2.41-.6-4.14,1.33-4.92,3.35-.12.3.08.63.32.79,2.25,1.5,3.37.85,5.09-.94.27-.28-.07-.65-.39-.51-1.41.64-2.51,1.23-3.99.24.11.26.21.53.32.79.81-2.09,2.75-3.18,4.68-1.67,1.84,1.45,1.19,3.9.15,5.58-2.89,4.64-9.17,5.27-13.87,3.48-.38-.15-.53.45-.17.6h0Z"/>
    <path class="cls-1" d="M196.59,475.36c-2,0-4.03-.37-5.84-1.13-.37-.16-.47-.56-.35-.86.12-.31.44-.44.75-.33,4.58,1.74,10.69,1.14,13.49-3.35,1.03-1.66,1.56-3.89-.07-5.17-.72-.57-1.48-.76-2.19-.56-.63.18-1.2.65-1.63,1.33.89.24,1.66-.11,2.65-.56l.21-.1c.29-.13.64-.04.82.22.18.25.15.57-.07.79-1.84,1.92-3.13,2.56-5.49.98-.35-.23-.61-.71-.44-1.16.79-2.04,2.64-4.2,5.29-3.54,2.38.6,4.05,2.76,3.88,5.03-.21,2.84-1.6,5.12-4.01,6.61-1.93,1.19-4.45,1.79-7.01,1.79ZM191.05,473.68c3.87,1.6,9,1.33,12.23-.64,2.24-1.37,3.52-3.49,3.72-6.12.16-2.17-1.61-3.93-3.41-4.38-1.81-.45-3.19.65-4.04,2.1l.4.27c.08.05.16.1.24.15.51-.86,1.23-1.46,2.04-1.69.91-.25,1.86-.02,2.74.68,1.96,1.54,1.4,4.1.22,6-2.96,4.75-9.32,5.43-14.14,3.65ZM200.16,466.62c1.5.66,2.41-.01,3.76-1.42l-.25.09c-1.05.48-2.05.93-3.21.55-.03.07-.06.14-.08.21l-.22.57ZM199.35,464.97c-.12.24-.23.48-.32.72-.05.14.06.32.2.42.27.18.52.33.76.44l-.64-1.58Z"/>
  </g>
  <g>
    <path class="cls-1" d="M402.46,474.47c-3.42,3.48-9.78,1.18-10.31-3.68-.27-2.47,1.69-4.71,4.15-4.76.93-.02,1.9.5,2.26,1.37.47,1.15-.53,2.23-.8,3.29-.1.42.36.83.76.58,2.38-1.51,2.01-5.12-.46-6.27-2.75-1.27-5.78.76-6.79,3.32-1.22,3.11.69,6.28,3.31,7.89,2.79,1.72,6.27,1.21,8.49-1.14.38-.4-.22-1-.6-.6h0Z"/>
    <path class="cls-1" d="M398.12,477.55c-1.27,0-2.56-.35-3.72-1.07-2.59-1.6-4.77-4.87-3.44-8.27.62-1.57,1.95-2.93,3.49-3.54,1.26-.51,2.55-.49,3.72.06,1.28.59,2.14,1.87,2.24,3.33.09,1.43-.55,2.74-1.74,3.49-.28.18-.62.17-.89-.03-.28-.2-.42-.56-.34-.89.09-.38.27-.75.44-1.11.33-.69.64-1.34.37-1.98-.29-.71-1.13-1.18-1.96-1.18-1.08.02-2.12.52-2.86,1.36-.75.85-1.11,1.96-.99,3.06.24,2.15,1.74,3.97,3.93,4.72,2.13.74,4.37.27,5.85-1.23h0c.29-.3.72-.3,1.02,0,.3.29.32.74.03,1.05-1.4,1.49-3.27,2.26-5.16,2.26ZM396.29,464.93c-.62,0-1.18.15-1.6.32-1.38.55-2.58,1.78-3.14,3.19-1.21,3.07.8,6.04,3.18,7.51,2.63,1.62,5.96,1.18,8.1-1.09.06-.07.03-.12-.01-.16-.07-.07-.12-.02-.14,0h0c-1.65,1.67-4.14,2.2-6.5,1.39-2.42-.84-4.09-2.85-4.35-5.25-.14-1.27.27-2.56,1.14-3.54.85-.97,2.06-1.55,3.32-1.57h.06c1.1,0,2.12.64,2.5,1.57.37.9-.03,1.74-.38,2.49-.16.35-.32.67-.4.99-.02.1.03.19.09.23.06.05.13.05.19,0,.98-.63,1.53-1.72,1.45-2.92-.08-1.23-.8-2.31-1.87-2.8-.57-.26-1.12-.36-1.62-.36Z"/>
  </g>
  <g>
    <path class="cls-1" d="M387.59,413.96c.39-.45.78-.9,1.17-1.35.76-.3.89-.57.39-.82-.39.85-.7,1.73-1.1,2.57-.81,1.7-1.87,3.28-2.95,4.81-2.14,3.05-4.92,5.82-6.32,9.3-.13.32.35.57.56.33,2.29-2.56,4.27-5.46,6.29-8.23,2.02-2.77,4.09-6,4.48-9.47.03-.31-.44-.42-.57-.16-.54,1.08-1.39,1.94-2.03,2.95-.03.05.05.1.08.05h0Z"/>
    <path class="cls-1" d="M379.11,429.23c-.12,0-.25-.04-.37-.11-.27-.17-.38-.47-.26-.75.99-2.46,2.66-4.57,4.27-6.62.71-.89,1.44-1.82,2.09-2.75,1.02-1.46,2.09-3.02,2.9-4.72l-.07.1-.32-.16-.25-.17.15-.32c.27-.42.57-.82.86-1.2.43-.57.84-1.11,1.15-1.72.13-.26.43-.38.73-.29.29.09.47.34.43.62-.4,3.55-2.52,6.85-4.54,9.62-.39.53-.78,1.07-1.17,1.61-1.62,2.24-3.29,4.56-5.15,6.64-.12.13-.29.2-.46.2ZM389.04,412.84c-.04.1-.08.19-.12.29-.19.46-.38.92-.6,1.38-.83,1.76-1.93,3.36-2.98,4.86-.66.95-1.4,1.88-2.11,2.78-1.59,2.01-3.23,4.09-4.18,6.46,1.88-2.05,3.54-4.36,5.14-6.59.39-.54.78-1.08,1.17-1.61,1.68-2.31,3.44-5,4.15-7.85-.13.12-.31.21-.49.29ZM389.5,411.65c.08.06.14.12.18.19.05-.25.08-.5.11-.75-.09.19-.19.38-.3.56Z"/>
  </g>
  <g>
    <path class="cls-1" d="M208.58,410.09c.74-1.71,2.26,2.63,2.45,3.1.6,1.48,1.14,2.93,1.9,4.34,2.46,4.54,4.86,10.06,8.77,13.54.29.26.68-.06.52-.4-2.83-6.24-7.41-11.57-10.13-17.93-.53-1.24-2.59-5.91-3.86-2.8-.08.19.26.34.34.14h0Z"/>
    <path class="cls-1" d="M221.94,431.48c-.16,0-.31-.06-.44-.18-3.26-2.9-5.42-7.08-7.52-11.12-.44-.86-.88-1.7-1.32-2.51-.64-1.19-1.12-2.38-1.63-3.64l-.37-.94c-1.1-2.89-1.58-3.09-1.66-3.1,0,0-.05.04-.13.21h0c-.11.24-.38.35-.64.24-.26-.11-.38-.38-.28-.62.34-.82.78-1.24,1.31-1.25h0c.93,0,1.95,1.32,3.12,4.04,1.4,3.28,3.34,6.34,5.21,9.3,1.74,2.75,3.54,5.6,4.91,8.62.13.3.05.63-.2.82-.11.08-.24.12-.37.12ZM209,409.38h.01c.65.01,1.3,1.03,2.24,3.5l.37.93c.5,1.24.97,2.42,1.6,3.58.44.81.88,1.66,1.32,2.52,2.07,3.99,4.21,8.12,7.38,10.94-1.32-3.02-3.11-5.85-4.84-8.58-1.89-2.98-3.84-6.07-5.26-9.39-1.45-3.39-2.31-3.66-2.54-3.66-.12,0-.24.07-.34.18.02,0,.04,0,.06,0ZM208.3,409.96h0s0,0,0,0Z"/>
  </g>
  <g>
    <path class="cls-1" d="M200.87,463.51c-.48-7.24,6.41-12.43,11.26-16.75,4.13-3.67,11.15-9.11,10.81-15.36-.03-.51-.67-.56-.85-.11-1.37,3.43-2.8,6.21-5.3,8.98-2.57,2.84-5.56,5.3-8.39,7.89-4.4,4.03-9.13,9-8.18,15.44.05.37.68.28.65-.09h0Z"/>
    <path class="cls-1" d="M200.51,464.15c-.31,0-.56-.2-.61-.51-.92-6.31,3.44-11.28,8.28-15.72.76-.69,1.53-1.38,2.3-2.06,2.06-1.84,4.2-3.73,6.07-5.8,2.53-2.8,3.93-5.58,5.24-8.89.14-.35.48-.56.84-.49.34.06.59.34.61.7.32,5.81-5.46,10.85-9.67,14.53-.43.38-.85.74-1.24,1.09-.47.42-.95.84-1.45,1.27-4.51,3.93-10.13,8.83-9.71,15.22h0c.02.34-.23.62-.59.66-.03,0-.05,0-.08,0ZM222.52,431.3s-.11.03-.14.1c-1.34,3.37-2.77,6.21-5.36,9.08-1.9,2.09-4.04,4-6.12,5.85-.77.68-1.53,1.37-2.29,2.06-4.4,4.03-9.01,8.85-8.09,15.17l.34-.04-.31.02c-.44-6.7,5.3-11.71,9.92-15.73.49-.43.98-.85,1.44-1.27.39-.35.81-.71,1.24-1.09,4.12-3.59,9.76-8.51,9.46-14.02,0-.1-.05-.11-.08-.12,0,0-.01,0-.02,0Z"/>
  </g>
  <g>
    <path class="cls-1" d="M376.58,434.85c1.28,6.54,5.27,11.66,9.53,16.6,2.38,2.76,4.85,5.44,7.03,8.36,2.23,2.98,3.72,6.21,5.32,9.54.22.45.81.11.74-.31-.97-6.2-5.89-11.44-9.91-15.94-4.95-5.54-10.24-10.99-12.19-18.38-.09-.35-.6-.2-.53.15h0Z"/>
    <path class="cls-1" d="M398.77,469.87c-.25,0-.47-.14-.59-.39l-.38-.79c-1.48-3.08-2.87-5.98-4.91-8.7-1.66-2.22-3.52-4.34-5.32-6.39-.57-.65-1.14-1.3-1.7-1.95-4.14-4.79-8.29-10.04-9.6-16.74-.06-.32.13-.63.46-.7.31-.07.6.1.68.41,1.78,6.76,6.46,11.96,10.98,16.99l1.71,1.91c3.97,4.44,8.47,9.46,9.41,15.46.06.41-.23.76-.54.86-.07.02-.14.03-.2.03ZM377.15,435.97c1.51,6,5.36,10.83,9.2,15.28.56.65,1.13,1.3,1.7,1.95,1.8,2.06,3.67,4.19,5.35,6.43,2.08,2.77,3.48,5.7,4.97,8.8l.38.79s.07.02.1-.01c.02-.02.06-.06.05-.12-.91-5.82-5.35-10.77-9.26-15.14l-1.71-1.91c-4.31-4.79-8.75-9.74-10.77-16.06Z"/>
  </g>
  <g>
    <path class="cls-1" d="M392.37,467.38c-1.37,4.86-4.95,10.12-4.6,15.28.03.39.54.46.67.09.83-2.29,1.27-4.72,2.05-7.05.9-2.71,1.8-5.39,2.38-8.19.07-.33-.41-.46-.5-.14h0Z"/>
    <path class="cls-1" d="M388.11,483.3s-.06,0-.09,0c-.32-.04-.54-.29-.57-.62-.24-3.45,1.24-6.92,2.67-10.27.76-1.78,1.47-3.45,1.94-5.11h0c.09-.3.37-.47.67-.4.31.08.5.37.44.68-.58,2.81-1.5,5.56-2.38,8.21-.36,1.07-.65,2.17-.93,3.24-.33,1.26-.68,2.57-1.13,3.82-.1.27-.35.45-.62.45ZM392.28,468.7c-.44,1.29-1,2.59-1.58,3.95-1.4,3.28-2.85,6.68-2.62,9.98.51-1.22.85-2.51,1.18-3.76.28-1.08.58-2.19.94-3.27.75-2.25,1.52-4.56,2.09-6.91ZM392.37,467.38l.3.08s0,0,0,0l-.3-.08Z"/>
  </g>
  <g>
    <path class="cls-1" d="M206.49,466.95c.49,2.98.62,6.17,1.46,9.08.15.51,1.03.43.96-.13-.34-3.04-1.25-6.1-1.94-9.08-.07-.32-.53-.18-.48.13h0Z"/>
    <path class="cls-1" d="M208.45,476.68c-.33,0-.69-.18-.8-.57-.56-1.94-.81-4.01-1.05-6.01-.12-1.03-.25-2.09-.42-3.1h0c-.05-.31.15-.6.47-.67.3-.06.56.11.63.41.18.78.38,1.57.57,2.37.55,2.21,1.12,4.49,1.37,6.75.04.39-.21.72-.61.8-.06.01-.11.02-.17.02ZM207.01,468.31c.08.58.15,1.15.21,1.72.24,1.98.49,4.03,1.03,5.91.03.11.17.12.24.11.12-.02.11-.08.1-.12-.25-2.22-.81-4.48-1.36-6.67-.08-.32-.16-.64-.24-.95Z"/>
  </g>
  <g>
    <path class="cls-1" d="M387.98,482.88c8.15,3.5,19.04,12.57,16.89,22.68-.2.92,1.21,1.31,1.41.39,2.06-9.83-8.66-21.98-18.1-23.54-.27-.04-.49.35-.2.47h0Z"/>
    <path class="cls-1" d="M405.64,506.79c-.27,0-.55-.1-.76-.3-.28-.25-.4-.62-.32-1,2.15-10.11-9.11-19.06-16.71-22.32h0c-.26-.11-.38-.37-.3-.63.08-.26.35-.49.68-.44,5.24.86,11.07,4.99,14.85,10.52,3.11,4.55,4.36,9.31,3.5,13.39-.08.36-.3.62-.62.72-.1.03-.21.05-.32.05ZM388.56,482.79c7.77,3.5,18.8,12.55,16.62,22.83-.03.16,0,.3.12.4.13.11.32.16.47.12.11-.04.18-.12.2-.26.82-3.92-.39-8.5-3.4-12.91-3.59-5.24-9.04-9.19-14.01-10.18ZM388.1,482.59l-.12.29.12-.29h0Z"/>
  </g>
  <g>
    <path class="cls-1" d="M404.21,478.78c.82,4.95,1.16,9.89,1.43,14.9.23,4.26.45,8.67,1.86,12.73.12.34.71.31.66-.09-.59-4.6-1.16-9.17-1.47-13.8-.32-4.67-.63-9.37-2.01-13.87-.09-.31-.52-.18-.47.13h0Z"/>
    <path class="cls-1" d="M407.86,506.95c-.27,0-.55-.15-.66-.44-1.4-4.03-1.63-8.38-1.86-12.59v-.23c-.31-5.54-.67-10.18-1.44-14.86h0c-.05-.3.14-.59.43-.66.29-.06.56.09.65.38,1.38,4.52,1.71,9.29,2.02,13.91.3,4.49.82,8.73,1.47,13.81.04.31-.15.58-.46.66-.05.01-.11.02-.16.02ZM404.69,479.82c.66,4.34.99,8.71,1.27,13.84v.23c.24,4.17.47,8.47,1.84,12.42l.08.02c-.68-5.06-1.2-9.3-1.5-13.79-.29-4.23-.58-8.58-1.69-12.72Z"/>
  </g>
  <g>
    <path class="cls-1" d="M207.7,475.63c-9.17,4.26-17.66,15.72-16.05,26.3.07.44.8.43.88,0,.95-5.16,1.32-9.63,3.94-14.34,2.71-4.89,6.9-8.45,11.55-11.42.35-.22.05-.71-.32-.54h0Z"/>
    <path class="cls-1" d="M192.08,502.57h-.02c-.37,0-.67-.25-.73-.59-1.68-11.02,7.12-22.4,16.23-26.63.31-.15.67-.03.84.27.16.29.07.64-.22.82-5.46,3.48-9.1,7.08-11.45,11.3-2.14,3.86-2.77,7.63-3.45,11.63-.14.86-.29,1.73-.45,2.62-.06.35-.37.58-.76.58ZM207.85,475.91h-.02c-8.94,4.16-17.45,15.59-15.88,25.98,0,.06.1.06.12.06.05,0,.13-.02.14-.07.16-.89.31-1.76.45-2.61.68-4.05,1.33-7.88,3.52-11.83,2.4-4.32,6.1-7.99,11.66-11.53Z"/>
  </g>
  <g>
    <path class="cls-1" d="M187.35,470.27c-.3,6-.16,12.02-.07,18.02.09,5.96-.18,12.1.54,18.02.05.42.6.42.65,0,.7-5.92.16-12.08-.03-18.02-.19-6.01-.31-12.02-.63-18.02-.02-.3-.45-.3-.46,0h0Z"/>
    <path class="cls-1" d="M188.15,506.94c-.33,0-.59-.25-.63-.59-.53-4.37-.52-8.89-.52-13.27,0-1.61,0-3.2-.02-4.79l-.03-1.91c-.08-5.29-.17-10.76.1-16.13h0c.01-.3.25-.52.54-.52h0c.29,0,.53.22.54.52.24,4.49.37,9.06.5,13.48.04,1.52.09,3.04.14,4.55.04,1.29.1,2.6.15,3.9.21,4.68.42,9.51-.13,14.17-.04.35-.3.59-.63.59h0ZM187.59,472.07c-.17,4.78-.1,9.61-.02,14.31l.03,1.91c.02,1.59.02,3.19.02,4.8,0,4.36,0,8.86.52,13.19.57-4.6.36-9.41.15-14.06-.06-1.31-.11-2.62-.16-3.91-.05-1.52-.09-3.04-.13-4.55-.11-3.83-.22-7.78-.41-11.68ZM187.67,470.28h0Z"/>
  </g>
  <g>
    <path class="cls-1" d="M404.17,472.08c-.75,4.17-.37,8.41-.39,12.59-.02,4.19-.04,8.38-.06,12.57-.04,8.37-.02,16.75-.03,25.12-.02,16.75-.6,33.54.35,50.29.01.22.79.22.8,0,.95-16.75.37-33.53.35-50.29,0-8.37-.02-16.75-.03-25.12,0-4.19-.04-8.38-.06-12.57-.02-4.18.36-8.42-.39-12.59-.03-.15-.52-.15-.55,0h0Z"/>
    <path class="cls-1" d="M404.45,572.95c-.4,0-.71-.13-.71-.29-.69-12.23-.57-24.68-.45-36.72.05-4.45.09-9.05.1-13.57,0-2.79,0-5.58,0-8.37,0-5.58,0-11.16.02-16.75l.06-12.57c0-1.09-.02-2.19-.04-3.28-.06-3.06-.13-6.23.43-9.32h0c.02-.14.27-.23.59-.23s.56.1.59.23c.56,3.08.49,6.24.43,9.3-.02,1.1-.04,2.2-.04,3.3l.02,4.08c.02,2.83.03,5.66.04,8.5l.02,25.12c0,4.53.05,9.13.1,13.58.12,12.03.25,24.48-.44,36.71,0,.17-.32.29-.71.29ZM404.45,472.31c-.51,3.01-.45,6.09-.39,9.08.02,1.1.04,2.19.04,3.29l-.06,12.57c-.03,5.58-.02,11.16-.02,16.75,0,2.79,0,5.58,0,8.37,0,4.52-.05,9.12-.1,13.57-.12,12.04-.25,24.48.45,36.71,0,.01,0,.03.09.03s.09-.02.09-.03c.69-12.22.57-24.67.44-36.7-.05-4.45-.09-9.06-.1-13.58l-.02-25.12c0-2.83-.02-5.66-.04-8.5l-.02-4.08c0-1.1.02-2.2.04-3.3.06-2.98.12-6.06-.39-9.06Z"/>
  </g>
  <g>
    <path class="cls-1" d="M192.81,472.56c-.93,7.99-.39,16.04-.41,24.04-.02,8.03,0,16.06-.01,24.09,0,16.22-.02,32.44.41,48.65,0,.23.83.23.83,0,.42-16.04.41-32.09.41-48.13,0-8.03,0-16.06-.01-24.09,0-8.17.54-16.4-.41-24.57-.03-.22-.78-.22-.8,0h0Z"/>
    <path class="cls-1" d="M193.22,569.64c-.41,0-.72-.13-.73-.3-.42-16.15-.41-32.57-.41-48.45v-8.31c0-5.33,0-10.65.01-15.98,0-2.22-.03-4.49-.07-6.68-.09-5.7-.19-11.59.48-17.37h0c.04-.38,1.38-.38,1.43,0,.7,5.98.59,12.09.49,18-.04,2.16-.08,4.38-.08,6.57v24.09c.02,15.72.02,31.97-.4,48.13,0,.17-.32.3-.73.3h0ZM193.13,472.56h0c-.67,5.77-.57,11.66-.48,17.35.04,2.19.07,4.46.07,6.69-.02,5.33-.01,10.65-.01,15.98v8.31c0,15.88-.01,32.3.41,48.45,0,.01,0,.04.1.04s.1-.03.1-.04c.42-16.16.41-32.41.41-48.13v-24.09c-.01-2.19.03-4.42.07-6.57.1-5.9.21-12.01-.49-17.99,0-.01,0-.04-.09-.04s-.09.03-.09.04Z"/>
  </g>
  <g>
    <path class="cls-1" d="M322.05,256.74c-1.55,6.14-2.4,12.47-3.39,18.72-.94,5.9-2.02,11.81-2.7,17.75-.03.28.41.33.48.07,1.59-6.13,2.37-12.49,3.31-18.74.88-5.91,1.92-11.81,2.63-17.75.02-.19-.28-.22-.33-.04h0Z"/>
    <path class="cls-1" d="M316.2,293.76s-.08,0-.11-.01c-.29-.05-.47-.3-.44-.58.5-4.34,1.22-8.73,1.93-12.98.26-1.59.53-3.19.78-4.78.17-1.09.34-2.17.51-3.26.79-5.11,1.6-10.4,2.89-15.49h0c.06-.24.3-.4.56-.35.25.05.41.26.38.51-.49,4.04-1.13,8.13-1.75,12.08-.3,1.89-.6,3.78-.88,5.67-.15,1.01-.3,2.02-.44,3.03-.76,5.2-1.54,10.58-2.87,15.74-.06.25-.29.41-.54.41ZM321.69,259.61c-.92,4.19-1.58,8.47-2.22,12.63-.17,1.09-.34,2.18-.51,3.26-.25,1.59-.52,3.19-.78,4.78-.64,3.88-1.3,7.87-1.79,11.84,1.17-4.8,1.89-9.79,2.59-14.62.15-1.01.3-2.03.45-3.04.28-1.89.58-3.78.88-5.67.48-3.01.96-6.11,1.38-9.2Z"/>
  </g>
  <g>
    <path class="cls-1" d="M307,288.47c.19,0,.19-.29,0-.29s-.19.29,0,.29h0Z"/>
    <path class="cls-1" d="M307,288.79c-.26,0-.46-.2-.46-.46,0-.11.04-.22.11-.31.09-.1.21-.15.34-.15.25,0,.45.2.45.46,0,.11-.04.22-.11.3-.09.1-.21.16-.34.16ZM307,288.16s-.1.02-.13.06c-.03.03-.04.07-.04.1,0,.15.21.21.3.1.03-.03.04-.07.04-.1,0-.1-.09-.17-.17-.17Z"/>
  </g>
  <g>
    <path class="cls-1" d="M321.06,291.78c23.96,3.56,46.53,14.96,60.2,35.43,12.15,18.19,15.5,40.49,14.14,61.94-.05.77,1.12.75,1.19,0,1.85-21.81-2.42-44.77-14.71-63.14-13.89-20.78-36.6-31.27-60.8-34.38-.09-.01-.11.14-.02.15h0Z"/>
    <path class="cls-1" d="M395.95,390.04s-.05,0-.07,0c-.49-.04-.82-.42-.78-.9,1.54-24.3-3.34-45.65-14.09-61.75-12.61-18.88-33.91-31.42-59.99-35.29-.21-.03-.35-.22-.32-.44s.22-.36.43-.34c18.94,2.44,44.91,10.41,61.02,34.52,11.52,17.23,16.76,39.72,14.76,63.34-.05.55-.51.86-.95.86ZM340.6,296.26c17.36,6.13,31.53,16.7,40.93,30.77,10.83,16.22,15.74,37.7,14.19,62.14,0,.15.06.23.21.24.11,0,.33-.04.35-.28,1.99-23.48-3.22-45.83-14.66-62.94-10.89-16.3-26.34-25.16-41.03-29.92ZM321.11,291.47h0s0,0,0,0Z"/>
  </g>
  <g>
    <path class="cls-1" d="M397.69,465.97c1.15.13,2.2.13,3.13.92.68.58.91,1.49.91,2.36-.01,2.3-2.58,2.59-3.83,1.64v1.02c0-.55,2.14-1.01,2.73-1.97.7-1.12.46-2.94.47-4.18,0-.79-1.19-.79-1.21,0-.04,1.89-.52,3.74-.57,5.63-.02.81,1.21.8,1.26,0,.1-1.75,1.1-3.28,1.69-4.9-.39.05-.78.1-1.18.15.96,2.21-.54,3.7-1.05,5.74-.11.45.5.89.84.49,1.62-1.96,2.38-4.5,1.33-6.87-.25-.56-1.01.26-1.18.73-.62,1.75-1.6,3.31-1.69,5.81h1.25c.05-2.51.52-3.76.55-6.27h-1.22c0,1.25.24,2.32-.26,3.32-.36.73-1.59,1.04-2.24,1.43-.38.23-.39.74,0,.96,2.48,1.41,5.24.55,5.52-2.51.26-2.86-2.7-4.98-5.33-3.86-.22.09-.07.36.11.38h0Z"/>
    <path class="cls-1" d="M400.53,473.66c-.17,0-.34-.04-.5-.12-.14-.07-.27-.17-.37-.29-.28,0-.56-.03-.85-.09h-.16v-.03c-.53-.12-1.07-.33-1.58-.62-.37-.21-.6-.59-.6-1,0-.42.22-.81.59-1.04.06-.04.13-.07.2-.11v-.75l.61.46c.33-.15.71-.32.96-.51.04-.34.09-.68.14-1.02.08-.6.16-1.18.22-1.75-.34-.07-.7-.11-1.11-.15l-.47-.05c-.39-.05-.71-.36-.76-.74-.05-.36.14-.69.48-.83.8-.34,1.66-.43,2.49-.29.19-.12.37-.18.69-.18.5,0,.91.28,1.1.7.1-.03.19-.05.29-.06.41-.03.7.2.86.56,0,.02.01.03.02.05l.41-.05-.21.58c.13.39.22.79.27,1.2.24.62.34,1.3.28,1.99-.13,1.4-.73,2.5-1.72,3.14-.15.21-.3.42-.47.62-.21.25-.5.39-.81.39ZM397.83,466.17h0,0ZM397.76,465.35h0,0Z"/>
  </g>
  <g>
    <path class="cls-1" d="M199.97,463.19c-2.49-.04-4.17,1.67-3.74,4.16.17,1.02.29,2.16,1.56,1.98.59-.09,1.95-.34,2.24-.97.12-.25.12-.56-.1-.76-.15-.13-.27-.18-.47-.2.52.06.06-.2-.15-.49-.32-.45-.89-1.14-.95-1.71-.08-.81-1.35-.83-1.29,0,.08.96.51,1.84.55,2.82.41-.11.81-.22,1.22-.33-.11-.16-.84-1.09-.64-1.29.06-.07.13-.09.21-.14.12-.1.15-.12.08-.06.2-.14.13-.12-.21.05.62-.01.62-.97,0-.96.09,0,.53.19.18.03-.12-.05-.26-.12-.39-.1-.33.03-.59.11-.84.34-.87.76.01,2.13.49,2.8.35.49,1.25.91,1.22.21-.05-.98-.49-2.28-.57-2.28h-1.29c.08,0,.48.81.86,1.4.24.37.51.45.79.8.1.13.22.14.36.22.05.02.1-.02.15,0,.3.06.23-.02-.2-.17-.03-.25-.07-.53-.1-.78.14-.13.14-.16.01-.08-.12.07-.25.11-.38.16-.27.1-.54.18-.82.25-.09.02-.17.04-.26.04.08,0,.4.73.15,0-.18-.53-.3-1.07-.34-1.62-.12-1.75,1.55-2.12,2.83-2.71.3-.14.13-.59-.16-.59h0Z"/>
    <path class="cls-1" d="M197.51,469.97c-1.48,0-1.73-1.52-1.87-2.36l-.03-.16c-.03-.18-.05-.35-.06-.53h-.07s.07-.03.07-.03c-.07-1.11.25-2.13.91-2.9.81-.95,2.04-1.44,3.52-1.43.44,0,.82.33.92.78.09.42-.11.83-.5,1.01-.2.09-.41.18-.62.27-.28.11-.52.22-.74.32.2.19.33.47.33.78,0,.06,0,.12,0,.18.11.16.23.32.32.44l.14.19c.04.06.1.11.15.16.08.08.2.2.28.35.03.02.06.05.09.08.4.37.5.95.25,1.49-.31.66-1.2,1.1-2.72,1.32-.13.02-.25.03-.37.03ZM199.33,467.04l.16.14.05-.42s-.14.04-.25.13c.01.05.03.1.04.14ZM199.54,466.77h0Z"/>
  </g>
  <g>
    <path class="cls-1" d="M394.38,486.72c1.53-.68,2.7-1.48,4.36-.65,1.39.7,2.23,2.36,2.86,3.7.75,1.59,1.17,3.34,1.48,5.06.25,1.38.07,2.9.46,4.25.08.27.51.37.64.08.72-1.53.22-3.58-.08-5.17-.43-2.3-1.26-4.57-2.51-6.55-1.68-2.66-5.36-4.07-7.42-.92-.09.13.08.25.19.19h0Z"/>
    <path class="cls-1" d="M403.91,499.66s-.03,0-.05,0c-.29-.02-.54-.22-.61-.48-.23-.81-.27-1.66-.31-2.49-.03-.6-.06-1.21-.16-1.79-.26-1.43-.65-3.29-1.45-4.99-.69-1.45-1.46-2.92-2.72-3.55-1.3-.65-2.26-.2-3.47.36-.2.1-.41.19-.63.29h0c-.19.08-.42.03-.56-.13-.13-.15-.14-.36-.03-.52,1.05-1.61,2.38-1.95,3.32-1.95h.03c1.7.01,3.5,1.14,4.6,2.87,1.21,1.91,2.09,4.21,2.55,6.66l.08.44c.3,1.53.67,3.44-.03,4.92-.1.22-.32.35-.56.35ZM397.34,485.41c.48,0,.99.11,1.55.39,1.56.78,2.46,2.7,3,3.85.83,1.76,1.24,3.67,1.5,5.14.11.61.14,1.25.17,1.87.04.83.07,1.61.29,2.34.67-1.26.34-2.98.04-4.5l-.09-.44c-.44-2.37-1.3-4.6-2.46-6.44-.99-1.56-2.59-2.57-4.08-2.58h-.02c-.91,0-1.73.38-2.38,1.12,0,0,0,0,0,0,.81-.38,1.6-.75,2.47-.75Z"/>
  </g>
  <g>
    <path class="cls-1" d="M401.46,488.29c-.03.54-.18.99-.43,1.47-.23.43-.55.83-.65,1.31-.03.12.13.23.22.13.68-.74,1.18-1.9,1.2-2.91,0-.22-.32-.21-.33,0h0Z"/>
    <path class="cls-1" d="M400.51,491.56c-.07,0-.13-.02-.2-.05-.18-.09-.28-.3-.24-.5.09-.4.29-.73.48-1.05.07-.11.14-.23.2-.34.25-.47.38-.88.4-1.34h0c.01-.27.23-.46.5-.46.26,0,.46.22.46.48-.02,1.06-.52,2.28-1.28,3.12-.09.09-.2.14-.32.14ZM401.78,488.31h0Z"/>
  </g>
  <g>
    <path class="cls-1" d="M399.13,486.6c-.04.63-.27,1.24-.58,1.79-.19.33-.64.67-.52,1.08.02.07.08.14.16.16.02,0,.05.01.07.02.12.03.27,0,.35-.09.73-.84,1.01-1.86,1.01-2.96,0-.32-.48-.32-.5,0h0Z"/>
    <path class="cls-1" d="M398.36,489.98c-.06,0-.12,0-.17-.02-.25-.06-.4-.2-.46-.39-.13-.45.15-.81.36-1.07.07-.09.14-.17.18-.25.33-.58.51-1.14.54-1.66h0c.02-.31.26-.54.57-.54h.02c.3.01.54.25.53.56,0,1.27-.37,2.33-1.09,3.17-.12.14-.3.21-.49.21ZM398.32,489.34h.06c.38-.43.64-.95.79-1.54-.09.25-.21.5-.36.75-.06.11-.15.22-.24.33-.15.2-.26.34-.26.46Z"/>
  </g>
  <g>
    <path class="cls-1" d="M398.04,486.39c-.67.77-.78,2.12-.54,3.08.05.19.33.19.38,0,.21-.87-.06-1.94.58-2.66.25-.28-.17-.7-.42-.42h0Z"/>
    <path class="cls-1" d="M397.69,489.92c-.24,0-.44-.16-.49-.38-.24-1-.16-2.48.61-3.36h0c.14-.16.34-.23.54-.19.22.04.4.21.47.43.07.21.02.43-.13.6-.35.39-.37.94-.4,1.52-.02.33-.03.68-.11,1.01-.05.22-.26.38-.49.38Z"/>
  </g>
  <g>
    <path class="cls-1" d="M437.12,416.25c.08,0,.08-.13,0-.13s-.08.13,0,.13h0Z"/>
    <path class="cls-1" d="M437.12,416.57c-.21,0-.37-.17-.37-.38v-.12l.19-.24.19-.02c.21,0,.37.17.37.38v.12l-.19.24-.19.02ZM436.86,416.19c0,.14.12.25.25.25v-.21.03l-.02-.03-.23-.03ZM437.12,416.19h0s0,0,0,0ZM437.14,416.16l.23.03c0-.14-.12-.25-.25-.25v.21-.03l.03.03Z"/>
  </g>
  <g>
    <path class="cls-1" d="M409.63,477.13c.62,7.01-.02,14.04-.34,21.05-.33,7.22-.36,14.42.02,21.64.46,8.55.14,17.11-.24,25.67-.38,8.54-1.38,17.13-.58,25.67.02.25.89.25.91,0,.78-8.37.64-16.77,1.03-25.15.4-8.73.69-17.46.23-26.19-.37-7.07-.42-14.12-.13-21.19.29-7.17.4-14.34-.75-21.49,0-.04-.16-.04-.16,0h0Z"/>
    <path class="cls-1" d="M408.95,571.47c-.37,0-.75-.11-.77-.31-.6-6.38-.19-12.88.21-19.17.13-2.14.27-4.34.37-6.51.39-8.67.7-17.15.24-25.66-.37-6.85-.38-13.93-.02-21.64.06-1.41.14-2.82.22-4.22.3-5.52.61-11.22.12-16.82h0c0-.09.15-.16.36-.17.26-.01.4.06.42.15,1.19,7.42,1.01,14.99.75,21.5-.28,6.98-.24,14.11.13,21.19.43,8.25.22,16.44-.23,26.2-.14,3.05-.21,6.15-.28,9.16-.12,5.25-.24,10.67-.74,16-.02.2-.4.31-.77.31h0ZM410.2,483.68c0,3.45-.19,6.9-.38,10.28-.08,1.41-.15,2.82-.22,4.22-.35,7.71-.35,14.78.02,21.63.46,8.51.15,17-.24,25.67-.1,2.17-.24,4.38-.37,6.51-.4,6.29-.8,12.79-.21,19.15,0,.05.08.06.14.06h0c.06,0,.14,0,.14-.06.5-5.32.62-10.74.74-15.99.07-3,.14-6.11.28-9.16.45-9.76.66-17.94.23-26.19-.37-7.08-.42-14.21-.13-21.2.19-4.6.33-9.72-.02-14.95Z"/>
  </g>
  <g>
    <path class="cls-1" d="M188.77,474.29c-.99,15.97-.68,31.97-.86,47.94-.15,12.93-.94,25.9-.07,38.82.01.16.6.16.61,0,1.08-15.89.54-31.82.67-47.71.11-13.01.71-26.05-.1-39.06,0-.07-.25-.07-.25,0h0Z"/>
    <path class="cls-1" d="M188.15,561.32c-.34,0-.61-.11-.62-.25-.63-9.32-.39-18.81-.16-27.99.09-3.55.18-7.23.22-10.84.05-4.39.06-8.86.07-13.18.03-11.4.06-23.18.79-34.76,0-.1.2-.18.44-.18s.43.08.44.18c.6,9.65.42,19.47.25,28.97-.06,3.37-.12,6.73-.15,10.09-.04,4.68-.02,9.44,0,14.04.05,11.04.09,22.46-.67,33.67,0,.14-.27.25-.62.25ZM188.89,477.7c-.54,10.48-.56,21.07-.59,31.35-.01,4.32-.02,8.79-.07,13.18-.04,3.61-.13,7.29-.22,10.84-.23,9.18-.47,18.66.16,27.98.74-11.21.7-22.63.65-33.66-.02-4.6-.04-9.36,0-14.04.03-3.36.09-6.73.15-10.09.15-8.38.31-17.01-.07-25.56Z"/>
  </g>
  <g>
    <path class="cls-1" d="M400.53,300.43c9.39,12.27,16.55,26.68,21.66,41.2,2.61,7.42,4.58,15.06,6.04,22.78.78,4.14,1.34,8.31,1.75,12.5.41,4.24.19,8.59.75,12.79.13.97,1.4.98,1.52,0,.95-7.6-.68-16.15-1.95-23.65-1.43-8.47-3.72-16.76-6.59-24.85-5.33-15-13.09-28.52-22.89-41-.13-.16-.41.06-.28.22h0Z"/>
    <path class="cls-1" d="M431.49,390.76c-.45,0-.98-.31-1.07-1-.31-2.33-.38-4.74-.45-7.07-.06-1.89-.11-3.84-.3-5.73-.44-4.53-1.01-8.61-1.75-12.48-1.53-8.07-3.55-15.72-6.02-22.74-5.57-15.81-12.84-29.64-21.61-41.12h0c-.16-.21-.12-.5.11-.67.22-.17.51-.14.67.07,10.25,13.06,17.76,26.5,22.94,41.09,3.03,8.54,5.25,16.91,6.6,24.9l.27,1.57c1.2,7.06,2.57,15.05,1.68,22.17-.09.69-.61,1-1.06,1.01h0ZM407.17,309.42c6.01,9.49,11.14,20.25,15.32,32.11,2.48,7.05,4.52,14.73,6.05,22.83.73,3.89,1.31,7.99,1.75,12.53.19,1.91.24,3.87.3,5.77.07,2.32.14,4.71.45,7.01.04.34.27.46.45.46h0c.19,0,.4-.12.44-.46.88-7.03-.48-14.98-1.68-21.99l-.27-1.57c-1.34-7.95-3.56-16.29-6.57-24.8-3.98-11.2-9.33-21.71-16.25-31.9Z"/>
  </g>
  <g>
    <path class="cls-1" d="M173.77,359.61c-4.44,8.5-4.98,18.43-5.03,27.85,0,.34.29.63.63.63,1,0,2,0,3,0,.35,0,.64-.29.64-.64.01-4.01.01-8.01.01-12.02,0-.73-1.1-.86-1.28-.14-.86,3.53-1.46,8.22-1.53,10.72h.75v-7.52c0-1.25-1.25-1.25-1.25,0v6.27h1.81c-.6-5.01.69-10.56,1.48-15.76.13-.83-1.14-1.26-1.27-.43-.81,5.31-2.41,10.5-1.8,15.91.09.82,1.03.82,1.03-.04v-5.95c0-1.25-1.25-1.25-1.25,0v7.45c0,.84,1.54.84,1.56,0,.07-3.52.77-6.93,1.6-10.34-.43-.06-.79-.12-1.22-.17,0,4.01.03,8.01.04,12.02.21-.21.44-.43.65-.64-1,0-2,0-3,0,.21.21.42.42.63.63,0-9.17.26-19.19,3.98-27.73.06-.14-.13-.27-.21-.12h0Z"/>
    <path class="cls-1" d="M170.62,388.98l-.26-.26h-1c-.33,0-.66-.14-.89-.38-.24-.24-.37-.55-.36-.89,0-.33,0-.66,0-.98l-.26-.27h.27c.09-8.68.7-18.47,5.09-26.89h0c.19-.36.61-.5.97-.33.37.18.54.61.37.99-1.05,2.4-1.82,4.93-2.38,7.53.32-.02.67.09.94.32.39.31.58.79.51,1.28-.16,1.02-.33,2.06-.51,3.1-.11.68-.23,1.36-.34,2.05.4.13.7.43.82.82h.05s-.02.11-.02.11c.02.08.03.17.03.25,0,3.58,0,7.16-.01,10.75h.23l-.23.23c0,.35,0,.69,0,1.04,0,.7-.57,1.26-1.27,1.26h-1.05s-.25.24-.25.24v-.25s-.46,0-.46,0v.26ZM170.62,387.47h.45s0-.02,0-.02h-.45v.02ZM172.3,381.51c0,.4,0,.8,0,1.19l.07,3.49c0-1.76.01-3.51.01-5.26-.03.19-.06.38-.09.58ZM171.25,374.76h.06c.05-.06.1-.13.15-.18.14-.86.28-1.72.42-2.57.18-1.04.35-2.06.5-3.08-.02-.03-.03-.06-.05-.08-.22,1.38-.48,2.76-.74,4.1-.12.61-.24,1.22-.35,1.82ZM174.33,359.9h0s0,0,0,0h0Z"/>
  </g>
  <g>
    <path class="cls-1" d="M409.57,413.97c4.7,2.89,8.32,6.56,8.15,12.46-.08,2.54-1.26,4.87-3.08,6.59-2.27,2.14-5.21,2.18-8.05,2.85-.39.09-.41.72,0,.8,5.75,1.11,11.62-3.49,12.31-9.18.71-5.9-3.01-12.68-9.12-14-.29-.06-.46.32-.2.47h0Z"/>
    <path class="cls-1" d="M408.32,437.16c-.6,0-1.2-.06-1.79-.17-.32-.06-.54-.33-.55-.68,0-.36.21-.66.54-.73.65-.16,1.31-.28,1.97-.4,2.19-.41,4.25-.79,5.94-2.38,1.85-1.75,2.92-4.01,2.99-6.37.15-4.94-2.32-8.7-8-12.19-.24-.15-.34-.43-.23-.7.11-.27.38-.42.66-.35,6.46,1.4,10.06,8.54,9.37,14.34-.35,2.9-2.01,5.63-4.55,7.48-1.91,1.4-4.15,2.14-6.34,2.14ZM410.01,413.88c3.9,2.44,8.21,6.07,8.02,12.57-.08,2.53-1.21,4.94-3.18,6.81-1.82,1.71-4.07,2.13-6.25,2.54-.65.12-1.29.24-1.94.39-.05.01-.06.08-.06.11,0,.07.03.08.04.08,2.56.49,5.34-.18,7.64-1.86,2.4-1.75,3.97-4.32,4.3-7.05.65-5.43-2.64-12.1-8.57-13.59ZM409.74,413.71l-.16.27.16-.27Z"/>
  </g>
  <g>
    <path class="cls-1" d="M412.93,434.91c1.73-2.36,3.07-4.97,4.67-7.42-.27-.11-.54-.23-.81-.34-.69,1.71-.85,3.54-1.54,5.25-.23.57.69.81.92.25.62-1.47.91-3.03,1.52-4.5l-.97-.13c-.15,1.27-.61,2.48-.77,3.76-.06.5.74.7.95.26,2.16-4.64,2.45-9.88-.96-14-.25-.31-.64.08-.51.39,2.04,4.65,2.79,8.29.59,13.1.32.09.63.17.95.26.14-1.27.6-2.48.74-3.76.07-.6-.78-.6-.97-.13-.6,1.48-.88,3.03-1.48,4.51.31.08.61.17.92.25.67-1.71.8-3.55,1.47-5.27.19-.48-.55-.74-.81-.34-1.57,2.47-2.91,5.06-4.35,7.6-.16.29.25.52.44.26h0Z"/>
    <path class="cls-1" d="M412.71,435.34c-.11,0-.22-.03-.32-.1-.25-.16-.33-.48-.18-.74.41-.72.81-1.45,1.2-2.17.99-1.79,2.01-3.65,3.13-5.42l.07-.17.05.02c.1-.11.23-.17.36-.2.16-2.63-.61-5.12-1.87-8.01-.15-.34.02-.7.28-.85.26-.16.56-.1.76.14,3.14,3.79,3.52,8.82,1.08,14.17l-.02.17h-.06s0-.01,0,0c-.12.26-.37.41-.65.43-.02.06-.05.12-.07.18l-.1.26h-.05c-.25.26-.65.31-.95.19-.27-.11-.43-.33-.45-.59l-.07-.02c-.52.84-1.07,1.68-1.66,2.48h0c-.12.16-.29.24-.47.24ZM415.8,429.36c-.63,1.09-1.24,2.19-1.83,3.26-.22.39-.43.79-.65,1.18.77-1.14,1.48-2.33,2.18-3.5.04-.07.09-.14.13-.21l.1-.4c.03-.11.05-.23.08-.34ZM415.67,432.19l.08.02s-.04-.06-.05-.1c0,.03-.02.05-.03.08ZM417.92,427.57s.05.09.06.13c.02-.1.04-.21.05-.31l-.12.18ZM417.98,427.31l.07.03c.44-2.81.13-6.12-2.35-9.11,1.33,3.05,2.13,5.66,1.95,8.43.24.15.36.4.33.66Z"/>
  </g>
  <g>
    <path class="cls-1" d="M209.07,416.11c3.91,3.06,5.08,8.53,5.37,13.27.22,3.55-1.01,6.64-3.45,9.17-4.02,4.18-10.72,6.4-13.38,11.82-.18.37.24.68.55.43,3.17-2.58,6.07-5.34,9.42-7.73,2.53-1.8,4.95-3.73,6.58-6.42,1.81-2.99,1.78-6.61,1.26-9.95-.64-4.08-2.05-9.12-6.2-10.85-.14-.06-.26.16-.15.25h0Z"/>
    <path class="cls-1" d="M197.91,451.2c-.15,0-.29-.05-.42-.14-.25-.2-.32-.53-.17-.83,1.66-3.39,4.87-5.56,7.98-7.65,1.93-1.3,3.92-2.64,5.46-4.24,2.44-2.54,3.57-5.54,3.36-8.94-.38-6.22-2.15-10.61-5.25-13.04h0c-.18-.14-.22-.39-.1-.59.12-.2.36-.29.56-.2,3.34,1.39,5.43,5.02,6.39,11.09.68,4.34.27,7.57-1.3,10.16-1.73,2.86-4.35,4.86-6.67,6.51-2.17,1.54-4.18,3.28-6.13,4.95-1.06.91-2.16,1.86-3.28,2.77-.13.11-.29.16-.45.16ZM210.3,416.8c2.61,2.66,4.1,6.87,4.45,12.56.22,3.58-.97,6.74-3.54,9.41-1.59,1.65-3.61,3.01-5.56,4.33-3.04,2.05-6.18,4.17-7.77,7.41l.27.29-.2-.24c1.11-.9,2.21-1.85,3.27-2.76,1.96-1.68,3.98-3.43,6.17-4.98,2.27-1.62,4.82-3.57,6.49-6.33,1.49-2.46,1.87-5.55,1.21-9.73-.8-5.04-2.37-8.32-4.8-9.95ZM209.26,415.86h0,0Z"/>
  </g>
  <g>
    <path class="cls-1" d="M432.16,455.36c-.53,14.66-1.38,29.33-1.96,43.99-.26,6.64-.59,13.27-.34,19.9.22,5.93.15,11.91,1.22,17.82.04.22.76.22.8,0,1.03-5.77.25-11.65.05-17.43-.24-6.77.08-13.53.32-20.3.25-7.1.47-14.21.59-21.32.13-7.57-.26-15.12-.53-22.68,0-.04-.16-.04-.16,0h0Z"/>
    <path class="cls-1" d="M431.48,537.38c-.38,0-.68-.12-.71-.28-.86-4.71-.99-9.53-1.11-14.2-.03-1.21-.07-2.43-.11-3.64-.23-6.01.02-12.11.26-18.01l.08-1.9c.27-6.7.59-13.52.91-20.1.37-7.83.76-15.93,1.05-23.89h0c0-.09.18-.16.39-.16s.39.07.39.16c.05,1.44.11,2.87.16,4.31.23,6.02.47,12.24.37,18.37-.1,6.14-.29,12.72-.59,21.32l-.09,2.58c-.22,5.81-.44,11.81-.23,17.72.05,1.38.13,2.77.21,4.15.26,4.37.52,8.88-.26,13.28-.03.17-.33.28-.71.28ZM432.23,461.48c-.25,5.96-.53,11.94-.81,17.78-.32,6.59-.64,13.4-.91,20.1l-.08,1.9c-.24,5.9-.49,12-.26,18,.05,1.21.08,2.42.11,3.64.13,4.66.26,9.48,1.11,14.18,0,.01,0,.04.09.04s.09-.03.09-.04c.78-4.39.51-8.9.26-13.26-.08-1.39-.16-2.78-.21-4.16-.21-5.91.01-11.92.23-17.73l.09-2.58c.3-8.6.49-15.17.59-21.31.09-5.52-.09-11.11-.3-16.56ZM432.47,455.36h0s0,0,0,0Z"/>
  </g>
  <g>
    <path class="cls-1" d="M191.39,497.93c1.35-3.94,1.9-8.21,4.25-11.74,2.63-3.94,7.57-5.28,11.47-7.52.4-.23.11-.77-.29-.7-4.64.79-9.4,3.16-12.28,6.97-2.65,3.51-3.36,8.66-3.64,12.92-.02.29.4.32.49.07h0Z"/>
    <path class="cls-1" d="M191.14,498.42s-.08,0-.12-.01c-.27-.05-.45-.29-.43-.56.28-4.18.95-9.44,3.7-13.09,2.69-3.57,7.36-6.22,12.48-7.09.35-.06.69.14.81.47.11.31-.01.63-.31.81-1.08.62-2.27,1.19-3.41,1.73-3,1.43-6.1,2.91-7.96,5.69-1.61,2.41-2.38,5.23-3.12,7.96-.33,1.22-.68,2.49-1.1,3.71-.08.23-.31.39-.55.39ZM206.89,478.28s-.01,0-.02,0c-4.96.85-9.48,3.41-12.08,6.85-2.55,3.37-3.25,8.24-3.54,12.23.34-1.06.64-2.15.93-3.2.76-2.78,1.54-5.66,3.2-8.15,1.95-2.93,5.14-4.45,8.21-5.91,1.13-.54,2.3-1.1,3.37-1.71.02-.07,0-.12-.07-.12Z"/>
  </g>
  <g>
    <path class="cls-1" d="M207.72,382.97c.91-5.57.99-11.29,1.83-16.89.84-5.59,2.15-11.12,3.86-16.5,1.8-5.67,4.26-11.08,7.16-16.27,2.87-5.14,6.59-9.58,9.88-14.43.19-.27-.21-.52-.43-.33-8.76,7.33-14.34,19.02-17.93,29.63-1.83,5.42-3.1,11.05-3.86,16.71-.78,5.85-1.51,12.2-.6,18.08,0,.05.09.05.09,0h0Z"/>
    <path class="cls-1" d="M207.67,383.32h-.27l-.09-.3c-.91-5.85-.2-12.18.6-18.17.78-5.86,2.09-11.51,3.87-16.77,4.6-13.6,10.67-23.61,18.03-29.77.23-.19.58-.18.81.02.21.19.24.48.08.73-1.14,1.68-2.36,3.34-3.53,4.95-2.2,3.01-4.47,6.12-6.33,9.46-3.11,5.58-5.44,10.88-7.13,16.21-1.74,5.48-3.03,11.02-3.85,16.45-.4,2.66-.63,5.4-.85,8.05-.25,2.91-.5,5.92-.98,8.84l-.04.26-.32.04ZM230.01,318.96c-7.17,6.09-13.11,15.95-17.63,29.32-1.77,5.23-3.06,10.83-3.84,16.65-.71,5.28-1.34,10.83-.84,16.05.3-2.28.5-4.6.69-6.86.23-2.66.46-5.41.86-8.09.82-5.47,2.12-11.04,3.87-16.55,1.7-5.37,4.05-10.71,7.18-16.32,1.88-3.38,4.17-6.5,6.37-9.52,1.11-1.52,2.26-3.09,3.34-4.68Z"/>
  </g>
  <g>
    <path class="cls-1" d="M390.07,411.43c-3.75,5.68-8.6,10.63-12.14,16.45-.16.26.22.56.42.33,4.41-5.2,8.38-10.84,11.94-16.65.09-.14-.13-.26-.22-.13h0Z"/>
    <path class="cls-1" d="M378.17,428.61c-.12,0-.24-.04-.34-.11-.25-.18-.33-.52-.17-.77,1.93-3.18,4.29-6.14,6.57-9.01,1.9-2.39,3.87-4.87,5.58-7.45.14-.2.41-.26.61-.13.21.13.26.39.14.59-3.78,6.17-7.8,11.79-11.96,16.69-.11.13-.26.19-.42.19ZM386.64,416.67c-.64.82-1.28,1.63-1.92,2.43-2.14,2.69-4.35,5.48-6.21,8.43,2.78-3.32,5.5-6.95,8.13-10.86ZM390.02,411.4h0s0,0,0,0Z"/>
  </g>
  <g>
    <path class="cls-1" d="M435.99,430.3s.04-.06,0-.06-.04.06,0,.06h0Z"/>
    <polygon class="cls-1" points="435.99 430.62 435.68 430.62 435.65 429.96 436.3 429.93 436.33 430.59 435.99 430.62"/>
  </g>
  <g>
    <path class="cls-1" d="M408.95,387.91c.44.01.86.03,1.29.13.42.1.46.4.68.71.13.19.44.23.57,0,.32-.58,0-1.13-.5-1.47-.56-.38-1.4-.28-2.03-.27-.57.01-.57.88,0,.89h0Z"/>
    <path class="cls-1" d="M411.22,389.23c-.22,0-.43-.11-.56-.29-.06-.09-.11-.18-.16-.26-.12-.22-.17-.29-.34-.33-.41-.09-.81-.11-1.23-.12-.48-.01-.74-.39-.74-.76,0-.37.25-.75.74-.76h.26c.62-.03,1.39-.07,1.96.32.72.49.96,1.23.6,1.88-.11.19-.29.31-.51.32h-.03ZM409.71,387.31c-.17,0-.33,0-.49.01h-.26c-.08.01-.13.06-.13.14s.04.13.13.13h0c.43.01.89.03,1.35.14.45.1.61.4.74.63.04.07.08.14.13.21.32-.49-.16-.89-.37-1.03-.29-.19-.69-.24-1.09-.24Z"/>
  </g>
  <g>
    <path class="cls-1" d="M410.41,389.38c-.32-.33-.91-1.21-1.43-1.14-.23.03-.35.15-.38.38-.07.52.81,1.11,1.14,1.43.44.43,1.1-.23.67-.67h0Z"/>
    <path class="cls-1" d="M410.07,390.5c-.19,0-.39-.07-.54-.23-.06-.06-.15-.14-.25-.22-.44-.38-1.05-.89-.98-1.47.05-.37.29-.61.65-.66.59-.07,1.1.54,1.48.98.08.1.16.18.22.25.3.31.3.79-.01,1.1-.16.16-.36.24-.56.24ZM409.04,388.55s-.01,0-.02,0c-.09.01-.1.02-.11.11-.03.24.51.7.77.91.11.09.21.18.29.25.09.08.17.04.22,0,.05-.05.09-.13,0-.22h0c-.07-.07-.16-.17-.25-.28-.21-.25-.65-.77-.9-.77Z"/>
  </g>
  <g>
    <path class="cls-1" d="M316.68,292.05c2.66-4.86,3.82-10.65,4.98-16.02,1.24-5.72,2.14-11.53,1.04-17.34-.05-.27-.42-.17-.44.06-.68,6.01-1.29,12.01-2.58,17.92-1.1,5.05-3.01,10.11-3.24,15.31,0,.13.18.17.24.06h0Z"/>
    <path class="cls-1" d="M316.58,292.43s-.08,0-.12-.02c-.2-.05-.33-.23-.32-.43.16-3.57,1.11-7.11,2.03-10.53.43-1.58.87-3.22,1.22-4.83,1.17-5.39,1.8-10.95,2.4-16.33l.18-1.57c.03-.27.27-.49.55-.5.26-.02.46.16.51.42,1.13,5.94.17,11.9-1.04,17.46l-.19.9c-1.12,5.2-2.29,10.58-4.82,15.21h0c-.08.14-.23.22-.38.22ZM322.49,259.26l-.09,1.09c-.6,5.39-1.23,10.97-2.41,16.39-.35,1.62-.8,3.27-1.22,4.86-.84,3.11-1.7,6.32-1.95,9.53,2.21-4.38,3.3-9.4,4.35-14.27l.19-.9c1.16-5.33,2.09-11.04,1.13-16.7Z"/>
  </g>
  <g>
    <path class="cls-1" d="M321.46,259.83c-.65,3.87-.81,7.8-1.52,11.68-.72,3.93-1.95,7.76-2.26,11.75-.03.37.48.38.6.08,1.54-4.05,2.33-8.42,3.1-12.67.64-3.5,1.18-7.33.45-10.84-.04-.17-.33-.18-.36,0h0Z"/>
    <path class="cls-1" d="M317.96,283.86s-.1,0-.15-.02c-.29-.06-.47-.31-.45-.61.2-2.58.79-5.12,1.36-7.58.32-1.37.65-2.8.9-4.2.37-2.04.6-4.13.82-6.15.2-1.81.4-3.69.71-5.52.04-.23.23-.39.47-.39,0,0,0,0,.01,0,.24,0,.44.16.49.38.76,3.64.17,7.56-.45,10.96l-.03.16c-.76,4.2-1.55,8.54-3.09,12.57-.09.25-.34.41-.61.41ZM321.65,260.64c-.24,1.58-.41,3.18-.58,4.73-.22,2.03-.44,4.13-.82,6.19-.26,1.42-.59,2.85-.91,4.23-.56,2.44-1.15,4.96-1.35,7.49,1.5-4.03,2.29-8.34,3.05-12.51l.03-.15c.56-3.1,1.11-6.65.59-9.97Z"/>
  </g>
  <g>
    <path class="cls-1" d="M396.94,388.16c4.98.65,10.15.33,15.16.53,5.03.2,9.91,1.67,14.88,1.88.49.02.65-.67.24-.9-3.97-2.32-9.47-2.42-13.97-2.65-5.37-.27-11.07-.23-16.41.5-.4.05-.24.59.09.63h0Z"/>
    <path class="cls-1" d="M427,390.89h-.03c-2.49-.11-4.99-.53-7.41-.94-2.44-.41-4.96-.84-7.47-.94-1.74-.07-3.54-.08-5.27-.08-3.27-.01-6.66-.03-9.92-.45-.33-.04-.59-.35-.59-.69,0-.3.2-.52.5-.56,4.74-.65,10.27-.82,16.46-.5l.94.05c4.41.21,9.4.45,13.17,2.64.31.18.46.56.35.93-.1.34-.39.56-.73.56ZM396.94,387.83s.02.02.03.02h0c3.22.42,6.59.44,9.84.45,1.74,0,3.54.01,5.29.08,2.55.1,5.09.53,7.55.95,2.4.41,4.88.83,7.33.93.07-.01.12-.03.14-.11,0-.01.04-.15-.07-.21-3.63-2.12-8.55-2.35-12.88-2.56l-.95-.05c-6.13-.31-11.61-.14-16.3.49Z"/>
  </g>
  <g>
    <path class="cls-1" d="M425.26,351.04c.92,13.01,4.1,25.69,5.29,38.68.31-.31.62-.62.93-.93-.63,0-1.25,0-1.88,0,.31.31.62.62.93.93.93-10.28-3.16-20.15-2.7-30.42-.56.08-1.12.37-1.68.45,1.29,8.71,3.67,17.51,4.13,26.28h1.66c-.43-6.27-1.84-14.23-2.62-21.25-.12-1.05-1.63-1.21-1.67-.11-.3,8.17.79,16.53,2.42,24.54.15.76,1.42.65,1.36-.13-.7-8.17-2.4-15.58-2.11-24.36h-1.67c.78,7.52,2.2,13.89,2.64,20.95.07,1.06,1.71,1.03,1.66-.04-.47-8.91-2.98-17.49-4.1-26.31-.14-1.07-1.64-1.14-1.71-.01-.67,10.27,3.5,20.34,2.56,30.61-.05.5.46,1.13.93,1.13h1.88c.47,0,.97-.62.93-1.13-1.18-13.1-4.49-25.92-6.73-38.84-.04-.23-.43-.28-.41-.04h0Z"/>
    <path class="cls-1" d="M431.48,391.67h-1.88c-.38,0-.77-.19-1.07-.52-.34-.37-.52-.85-.48-1.28.05-.54.09-1.09.11-1.64l-.07-.07h.07c.18-4.64-.6-9.32-1.35-13.86-.8-4.82-1.62-9.81-1.33-14.8l-.04-.29h.03c-.35-2.71-.64-5.42-.83-8.13h0c-.03-.42.26-.77.68-.82.45-.06.9.27.98.71.41,2.34.85,4.7,1.31,7.04.25.12.48.32.64.59l.25-.03-.03.71c.18,1.39.39,2.78.63,4.17.27.13.5.35.66.63h.22l-.02.65h0c.31,2.81.73,5.82,1.14,8.73.14,1.04.29,2.08.43,3.13.48,2.89.87,5.81,1.04,8.75.12.94.23,1.87.32,2.81h.13l-.12.12c.05.53.11,1.06.15,1.59.04.44-.14.92-.48,1.29-.31.34-.69.52-1.07.52ZM429.35,389.42c-.01.19-.03.37-.05.56-.01.14.2.42.31.44h.37s-.03-.32-.03-.32c-.18-.12-.32-.29-.41-.49l-.2-.2ZM431.11,390.3v.12s.37,0,.37,0c.11-.02.32-.3.3-.45v-.08c-.17.2-.4.34-.68.41Z"/>
  </g>
  <g>
    <path class="cls-1" d="M394.75,486.24c1.6.98,2.99,1.7,4.25,3.15,1.17,1.35,1.9,3.52,3.52,4.37.29.15.74-.03.71-.41-.16-1.99-2.03-4.05-3.33-5.47-1.23-1.34-3.22-2.48-5.08-2.09-.21.04-.22.34-.06.44h0Z"/>
    <path class="cls-1" d="M402.75,494.13c-.13,0-.26-.03-.37-.09-1.12-.58-1.82-1.72-2.5-2.82-.37-.6-.71-1.16-1.12-1.62-1.04-1.2-2.17-1.88-3.47-2.67-.23-.14-.46-.28-.7-.43h0c-.19-.12-.29-.35-.25-.58.04-.22.2-.38.41-.43,2.08-.43,4.2.9,5.38,2.18,1.29,1.4,3.25,3.53,3.42,5.65.02.26-.1.51-.32.66-.14.09-.3.14-.47.14ZM395.08,486.08l.53.32c1.3.78,2.52,1.52,3.62,2.79.44.5.81,1.11,1.18,1.71.63,1.02,1.28,2.08,2.25,2.59.06.03.15.02.2-.02.05-.03.05-.06.05-.09-.15-1.91-2.02-3.94-3.25-5.28-1.03-1.11-2.82-2.27-4.59-2.03Z"/>
  </g>
  <g>
    <path class="cls-1" d="M408.95,410.52c7.75.5,15.49,1.12,23.26,1.53,3.95.21,7.9.41,11.85.65,4.61.28,9.48,1.05,14.08.49.59-.07.81-.93.15-1.11-3.84-1.03-8.03-.97-11.98-1.18-4.35-.24-8.7-.44-13.06-.62-8.13-.33-16.18-.18-24.31-.06-.19,0-.19.28,0,.29h0Z"/>
    <path class="cls-1" d="M454.58,413.7c-2.27,0-4.57-.2-6.82-.4-1.25-.11-2.49-.22-3.72-.29-3.66-.22-7.33-.41-11-.61l-.86-.04c-5.01-.27-10.1-.62-15.02-.97-2.75-.19-5.49-.39-8.24-.56h0c-.25-.02-.44-.22-.43-.48,0-.25.2-.44.45-.44l1.16-.02c7.58-.12,15.41-.24,23.16.07,4.76.2,9.03.4,13.06.62.81.04,1.62.08,2.44.11,3.2.13,6.51.26,9.6,1.09.42.11.66.44.64.85-.03.45-.38.81-.83.87-1.19.15-2.39.2-3.6.2ZM412.99,410.47c1.41.1,2.82.19,4.23.29,4.92.35,10,.7,15.01.97l.86.05c3.67.19,7.33.39,11,.6,1.23.07,2.48.18,3.73.29,3.42.3,6.95.61,10.29.2.17-.02.27-.17.28-.29,0-.1-.05-.17-.17-.2-3.03-.81-6.3-.94-9.46-1.06-.82-.03-1.64-.07-2.45-.11-4.03-.22-8.29-.42-13.05-.62-6.76-.28-13.59-.22-20.25-.12ZM408.97,410.2h0,0Z"/>
  </g>
  <g>
    <path class="cls-1" d="M225.93,409.1c.62-.57,1.6-.81,2.39-1.03.81-.23.61-1.38-.19-1.42-.67-.03-1.31.2-1.83.62-.53.43-.8.85-.93,1.51-.06.32.3.56.56.32h0Z"/>
    <path class="cls-1" d="M225.7,409.51c-.11,0-.21-.03-.31-.08-.25-.14-.38-.43-.32-.71.14-.72.44-1.21,1.03-1.69.59-.48,1.32-.73,2.04-.69.53.03.94.42,1,.95.06.51-.24.95-.74,1.09l-.2.06c-.72.2-1.54.43-2.06.9-.13.12-.29.18-.44.18ZM228.01,406.96c-.53,0-1.06.19-1.51.56-.48.39-.7.75-.82,1.32l.04.03c.62-.58,1.52-.83,2.31-1.05l.2-.06c.3-.08.29-.34.29-.42-.02-.19-.15-.38-.41-.39-.04,0-.07,0-.11,0Z"/>
  </g>
  <g>
    <path class="cls-1" d="M377.41,392.12c16.98,1.22,34.02,1.51,51.02,2.44,8.5.46,17,1.04,25.49,1.71,8.4.67,16.83,1.83,25.25,2.11.45.01.56-.7.11-.79-7.93-1.52-16.11-1.98-24.15-2.64-8.49-.7-16.98-1.26-25.49-1.74-17.37-.99-34.84-1.86-52.24-1.39-.2,0-.19.29,0,.3h0Z"/>
    <path class="cls-1" d="M479.19,398.69h-.02c-5.43-.18-10.93-.73-16.26-1.27-2.95-.3-6-.6-9-.84-8.51-.68-17.09-1.25-25.49-1.71-6.91-.38-13.94-.65-20.74-.92-9.93-.39-20.21-.79-30.29-1.52-.25-.02-.44-.22-.44-.48,0-.25.2-.44.45-.45,17.35-.47,34.63.39,52.27,1.39,9.36.53,17.7,1.1,25.5,1.75,1.32.11,2.65.21,3.98.32,6.67.52,13.56,1.06,20.19,2.33.35.07.58.39.54.76-.04.38-.33.65-.69.65ZM381,392.05c8.92.58,17.94.93,26.7,1.27,6.8.27,13.84.54,20.75.92,8.41.46,16.99,1.04,25.5,1.72,3,.24,6.06.55,9.01.84,5.32.53,10.81,1.09,16.22,1.26.05-.01.07-.08.07-.09,0-.07-.02-.07-.03-.08-6.6-1.26-13.48-1.8-20.13-2.32-1.33-.1-2.66-.21-3.99-.32-7.79-.64-16.13-1.21-25.48-1.74-16.41-.93-32.5-1.74-48.63-1.47Z"/>
  </g>
  <g>
    <path class="cls-1" d="M150.97,392.42c21.94,1.45,44.2.47,66.09-1.4.71-.06.71-1.17,0-1.11-22.01,1.94-44,2.39-66.09,2.36-.1,0-.09.14,0,.15h0Z"/>
    <path class="cls-1" d="M172.93,393.43c-7.68,0-14.96-.23-21.98-.7h0c-.21-.01-.37-.19-.36-.4,0-.21.18-.37.38-.37,26.68.03,47.05-.68,66.06-2.36.29-.03.56.09.72.32.18.25.2.61.06.91-.14.29-.4.48-.73.51-16.46,1.4-30.92,2.09-44.16,2.09ZM160.05,392.57c16.68.61,35.05,0,56.98-1.86.1,0,.17-.06.21-.15.04-.09.04-.22,0-.28-.01-.02-.05-.07-.15-.05-16.81,1.48-34.69,2.22-57.03,2.34ZM150.99,392.11h0,0Z"/>
  </g>
  <g>
    <path class="cls-1" d="M404.86,441.02c-1.72-.37-3.49-.21-5.19-.63-.28-.07-.63.2-.51.51,1.14,2.87,2.65,5.53,4.41,8.06.31.45,1.05.31,1.06-.29.02-2.47-.22-4.95.24-7.39.11-.57-.66-.38-.87.16-.82,2.22-.94,4.77-.95,7.28h1.26c-.03-2.51-.39-4.59-1.13-6.58-.11-.3-.45-.8-.8-.65-.44.18-.71.48-1.13.65.21.06.43.06.64.12-.25-.25-.5-.53-.73-.79-.58-.67-1.52.28-.97.96.8.97,1.39,2.08,2.22,3.03.55.62,1.59-.2,1.14-.88-.74-1.13-1.48-2.27-2.23-3.4-.4.31-.79.61-1.19.92,1.44,1.53,2.07,3.62,3.54,5.09.37.37,1.03,0,.88-.51-.58-2.06-1.89-4.1-3.35-5.65-.59-.62-1.68.2-1.19.92.76,1.12,1.52,2.24,2.28,3.36.38-.29.76-.59,1.14-.88-.85-.93-1.41-2.07-2.28-2.97-.32.32-.65.65-.97.97.27.23.52.48.77.73.23.23.52.22.8.1.44-.18.69-.57,1.12-.76-.32-.13-.64-.26-.96-.39.72,1.88,1.09,3.82,1.13,5.84.02.81,1.26.81,1.26,0,0-2.25.02-4.45.56-6.64-.29-.04-.59-.08-.88-.12-.29,2.49-.51,5-.49,7.51.35-.1.7-.19,1.06-.29-1.77-2.47-3.32-5.07-4.64-7.81-.12.21-.24.41-.36.62,1.75.15,3.51-.09,5.26.11.17.02.2-.25.04-.29h0Z"/>
    <path class="cls-1" d="M404.08,449.85c-.36,0-.7-.15-.94-.43l-.26.07v-.15h-.44v-.63c0-.1,0-.21,0-.32-1.49-2.24-2.67-4.42-3.6-6.63l-.32-.03.18-.31c-.04-.1-.08-.2-.12-.3-.14-.34-.07-.72.18-1,.23-.26.57-.4.91-.37l.3-.52.31.64c.7.13,1.41.18,2.15.23.68.05,1.37.09,2.07.21.13-.02.27-.01.39.02.09.03.18.07.26.13.12.06.22.15.3.26l.19.03-.07.29c.01.08.01.17,0,.25-.02.12-.06.23-.13.32-.29,1.66-.25,3.32-.21,5.07.01.54.02,1.07.02,1.61l.33.46-.34.09c-.06.45-.36.81-.8.94-.12.04-.25.06-.37.06Z"/>
  </g>
  <g>
    <path class="cls-1" d="M191.82,440.69c1.91.67,3.84.93,5.85.61.61-.1.45-1.05-.14-1.05-.97,0-1.87,0-2.77.38-.64.26-.37,1.32.29,1.06.81-.31,1.62-.34,2.48-.35-.16-.28-.32-.56-.48-.84-2,2.67-4.86,4.53-7.06,7.01.3.23.6.47.91.7,1.14-1.93,2.19-3.94,2.7-6.14.15-.67-.69-.59-1.07-.06-1.33,1.87-1.94,4.19-2.01,6.7h1.27c.04-1.25.33-3.78.55-5.47.11-.88.74-3.04-.15-3.65-.36-.24-.91-.1-1,.31-.2.88.64,1.76.78,2.62.07.43.71.67,1.06.41.43-.33.96-.59,1.51-.65-.12-.46-.25-.92-.37-1.37-.5.37-1,.74-1.51,1.11-.54.4-.44,1.11.18,1.36.52.21,1.38.69,1.95.46.44-.17.72-.66.45-1.11-.02-.03-.03-.05-.05-.08-.24-.41-.85-.51-1.18-.15-.41.43-.77.87-1.11,1.36-.33.49.33,1.15.82.82.49-.34.92-.7,1.36-1.11-.39-.05-.79-.1-1.18-.15.02.03.03.05.05.08.15-.37.3-.74.45-1.11.31-.12-.23-.11-.52-.21-.21-.07-.43-.15-.64-.24.06.45.12.91.18,1.36.5-.38,1-.76,1.5-1.14.5-.38.45-1.47-.37-1.37-.89.11-1.68.43-2.39.97l1.21.32c-.06-.35-.22-.68-.36-1-.1-.24-.42-1.29-.49-.92-.33.14-.67.27-1,.41.02.01.04.03.06.04-.11-.2-.23-.39-.34-.59,0,2.65-.66,5.24-.7,7.89-.01.82,1.25.82,1.27,0,.05-2.06.57-4.01,1.75-5.71-.36-.15-.72-.3-1.07-.45-.48,2.11-1.47,4.02-2.56,5.87-.33.56.46,1.2.91.7,2.26-2.57,5.16-4.5,7.21-7.26.26-.35-.09-.84-.48-.84-.96,0-1.88.05-2.77.41.14.33.28.67.42,1,.76-.32,1.55-.31,2.35-.31-.05-.35-.1-.7-.14-1.05-1.82.3-3.67.09-5.49-.15-.34-.04-.36.47-.08.57h0Z"/>
    <path class="cls-1" d="M192.39,449.34h-2.52v-.35s-.1-.06-.15-.1c-.4-.29-.59-.75-.51-1.19l-.14-.11.34-.38c.19-.33.38-.66.57-1,.07-.74.17-1.48.26-2.2.14-1.07.28-2.18.33-3.27l-.39-.24.34-.16c-.01-.18,0-.38.04-.57,0-.03.02-.06.03-.1v-1.99s.72,1.25.72,1.25c.4-.15.87-.1,1.22.14.21.14.37.33.48.54.8.09,1.57.16,2.33.16.17-.04.34-.07.5-.09.37-.05.73-.08,1.09-.09l.18-.24.14.24c.09,0,.18,0,.28,0,.02,0,.03,0,.05,0l.34-.06.02.13c.28.11.52.32.66.6.2.39.16.82-.09,1.16,0,.01-.02.03-.03.04-.01.02-.03.04-.04.06-.02.02-.03.04-.05.06l.21.37h-.51c-1.12,1.39-2.44,2.58-3.72,3.74-.63.57-1.28,1.16-1.9,1.76-.04.48-.07.92-.08,1.27l-.02.61Z"/>
  </g>
  <g>
    <text class="cls-2" transform="translate(289.83 555.26)"><tspan x="0" y="0">P</tspan></text>
    <text class="cls-2" transform="translate(227.08 506.47)"><tspan x="0" y="0">E</tspan></text>
  </g>
  <text class="cls-4" transform="translate(195.49 362.62) rotate(-74.39) scale(.92 1)"><tspan x="0" y="0">E</tspan></text>
  <text class="cls-4" transform="translate(198.27 352.73) rotate(-68.79) scale(.92 1)"><tspan x="0" y="0">V</tspan></text>
  <text class="cls-4" transform="translate(202.4 342.27) rotate(-62.96) scale(.92 1)"><tspan x="0" y="0">E</tspan></text>
  <text class="cls-4" transform="translate(207.08 333.12) rotate(-56.87) scale(.92 1)"><tspan x="0" y="0">N</tspan></text>
  <text class="cls-4" transform="translate(213.59 323.3) rotate(-50.89) scale(.92 1)"><tspan x="0" y="0">T</tspan></text>
  <text class="cls-4" transform="translate(220.05 315.39) rotate(-45.17) scale(.92 1)"><tspan x="0" y="0">U</tspan></text>
  <text class="cls-4" transform="translate(227.89 307.56) rotate(-39.88) scale(.92 1)"><tspan x="0" y="0">A</tspan></text>
  <text class="cls-4" transform="translate(236.28 300.64) rotate(-35.14) scale(.92 1)"><tspan x="0" y="0">L</tspan></text>
  <text class="cls-4" transform="translate(244.4 294.97) rotate(-31.02) scale(.92 1)"><tspan x="0" y="0">L</tspan></text>
  <text class="cls-4" transform="translate(251.98 290.41) rotate(-27.55) scale(.92 1)"><tspan x="0" y="0">Y</tspan></text>
  <g>
    <text class="cls-5" transform="translate(347.49 287.03) rotate(29.69)"><tspan x="0" y="0">P</tspan></text>
    <text class="cls-5" transform="translate(356.63 292.29) rotate(35.13)"><tspan x="0" y="0">E</tspan></text>
    <text class="cls-5" transform="translate(365.06 298.25) rotate(40.93)"><tspan x="0" y="0">R</tspan></text>
    <text class="cls-5" transform="translate(373.41 305.59) rotate(46.75)"><tspan x="0" y="0">F</tspan></text>
    <text class="cls-5" transform="translate(380.21 312.88) rotate(52.29)"><tspan x="0" y="0">E</tspan></text>
    <text class="cls-5" transform="translate(386.5 321.1) rotate(57.86)"><tspan x="0" y="0">C</tspan></text>
    <text class="cls-5" transform="translate(392.12 330.15) rotate(63.08)"><tspan x="0" y="0">T</tspan></text>
  </g>
</svg>